<?xml version="1.0" standalone="no"?>
<!DOCTYPE svg PUBLIC "-//W3C//DTD SVG 1.1//EN" "http://www.w3.org/Graphics/SVG/1.1/DTD/svg11.dtd" >
<svg xmlns="http://www.w3.org/2000/svg">
<metadata>Generated by IcoMoon</metadata>
<defs>
<font id="icomoon" horiz-adv-x="1024">
<font-face units-per-em="1024" ascent="960" descent="-64" />
<missing-glyph horiz-adv-x="1024" />
<glyph unicode="&#x20;" horiz-adv-x="512" d="" />
<glyph unicode="&#xe8f2;" glyph-name="deals" d="M323.673 15.694c-22.182 1.005-40.996 14.447-49.717 33.478l-0.147 0.358-150.483 248.877-65.892 108.633-24.487 40.96c-6.828 9.184-10.931 20.748-10.931 33.271 0 20.392 10.88 38.243 27.153 48.063l0.252 0.141c4.837 3.986 10.217 7.806 15.862 11.231l0.611 0.344 534.261 321.447c12.402 10.364 28.517 16.658 46.102 16.658 7.702 0 15.122-1.207 22.081-3.443l-0.511 0.142 262.678-89.043 33.391-10.685c22.59-4.23 39.458-23.797 39.458-47.304 0-4.393-0.589-8.649-1.693-12.693l0.078 0.337-13.357-79.694-15.137-89.043c-7.123-44.522-14.692-85.037-20.925-127.777-3.577-28.753-20.407-52.941-44.089-66.553l-0.433-0.229q-195.45-114.421-389.12-231.958l-146.922-89.043c-6.233-3.562-12.466-7.123-19.144-10.24-8.512-3.848-18.446-6.133-28.903-6.233h-0.037zM646.901 854.929c-12.639-1.251-24.033-5.736-33.597-12.607l0.206 0.141-370.421-222.609-163.84-100.619-14.692-9.35c-10.343-5.577-17.253-16.333-17.253-28.702 0-7.898 2.817-15.138 7.501-20.77l-0.043 0.053c8.014-13.357 16.028-26.713 24.487-40.070l65.892-109.078 150.038-248.877c13.357-22.261 25.377-26.268 47.638-16.918l16.028 8.904 146.922 89.043q194.56 117.537 389.12 234.63c17.374 9.651 29.443 27.032 31.588 47.371l0.023 0.267c6.233 44.522 13.802 85.482 20.925 128.223l15.137 89.043 13.357 79.694c2.671 18.254-2.226 25.823-20.48 31.61l-33.837 10.685-264.904 89.043c-2.102 0.666-4.52 1.050-7.028 1.050-0.975 0-1.936-0.058-2.881-0.171l0.114 0.011zM746.184 468.035c1.583-3.016 2.511-6.589 2.511-10.379 0-12.54-10.166-22.706-22.706-22.706-0.885 0-1.758 0.051-2.616 0.149l0.105-0.010c-31.165 0-62.33 0-93.496 0l-304.083-3.562c-0.134-0.003-0.292-0.005-0.45-0.005-12.294 0-22.261 9.967-22.261 22.261 0 0.158 0.002 0.316 0.005 0.473v-0.024c-0.011 0.267-0.018 0.58-0.018 0.894 0 12.39 9.924 22.462 22.256 22.702h66.359l326.79 4.452c11.576-0.445 22.261-1.781 27.603-14.247zM400.696 255.666c-4.522 10.111-7.155 21.912-7.155 34.329 0 31.56 17.014 59.146 42.371 74.086l0.402 0.219c9.981 4.204 21.584 6.647 33.758 6.647 31.86 0 59.813-16.733 75.548-41.891l0.218-0.374c4.113-9.883 6.502-21.364 6.502-33.402 0-31.801-16.67-59.708-41.749-75.459l-0.371-0.217c-9.921-4.148-21.449-6.558-33.539-6.558-32.007 0-60.070 16.888-75.765 42.239l-0.22 0.381zM653.579 654.581c4.263-9.792 6.743-21.199 6.743-33.186 0-31.964-17.636-59.809-43.708-74.336l-0.433-0.221c-9.89-4.303-21.41-6.806-33.516-6.806-32.139 0-60.156 17.644-74.895 43.774l-0.223 0.43c-3.807 9.541-6.014 20.598-6.014 32.17 0 32.333 17.233 60.641 43.015 76.239l0.398 0.223c9.73 4.123 21.045 6.519 32.919 6.519 32.456 0 60.731-17.901 75.489-44.369l0.225-0.439z" />
<glyph unicode="&#xe900;" glyph-name="happyHour" d="M934.957 363.409c0 125.551-19.59 146.031-145.141 153.155-6.678 0-19.144-4.007-18.254 6.678 0 24.932-12.021 50.755 17.363 73.016 34.058 23.011 56.153 61.477 56.153 105.105 0 50.632-29.761 94.314-72.744 114.506l-0.773 0.326c-24.495 15.305-54.248 24.382-86.12 24.382-8.257 0-16.371-0.609-24.301-1.785l0.897 0.109c-2.589-0.72-5.561-1.135-8.63-1.135-13.188 0-24.59 7.645-30.017 18.746l-0.087 0.197c-40.922 56.145-106.46 92.217-180.423 92.217-71.224 0-134.636-33.449-175.383-85.496l-0.368-0.488c-9.073-13.591-24.132-22.569-41.32-23.149l-0.086-0.002c-59.672-1.141-109.951-40.103-127.941-93.861l-0.282-0.971c-4.496-12.346-7.095-26.598-7.095-41.457 0-44.795 23.627-84.071 59.098-106.048l0.533-0.308c13.802-9.795 11.576-21.816 11.576-34.282 0-84.591 0-169.183 0-253.774s0-169.183 0-253.774c-0.022-0.806-0.035-1.754-0.035-2.705 0-56.365 44.953-102.23 100.964-103.699l0.136-0.003c133.565-2.226 267.13-2.226 400.696 0 0.283-0.003 0.617-0.004 0.951-0.004 53.687 0 97.848 40.784 103.193 93.059l0.036 0.441c2.017 13.742 3.169 29.607 3.169 45.741 0 2.076-0.019 4.147-0.057 6.214l0.004-0.31c0 58.323 0 58.323 58.769 59.659 1.742-0.109 3.778-0.17 5.828-0.17 55.079 0 99.729 44.65 99.729 99.729 0 0.999-0.015 1.995-0.044 2.987l0.003-0.145c0 36.063 0 71.68 0 107.297zM768.445 381.217c0 14.692 5.788 17.809 19.144 17.809s22.706 0 21.37-19.144 0-32.056 0-48.529 0-30.275 0-44.522-9.795-17.363-22.261-18.254-18.699 5.788-18.254 19.144c0.89 31.165 0.89 62.776 0 93.496zM723.923 182.65c0-40.070 0-80.139 0-120.654 0.241-2.143 0.378-4.627 0.378-7.143 0-37.375-30.298-67.673-67.673-67.673-3.907 0-7.737 0.331-11.463 0.967l0.4-0.056h-363.743c-2.928-0.426-6.308-0.67-9.745-0.67-39.342 0-71.235 31.893-71.235 71.235 0 3.851 0.306 7.63 0.894 11.316l-0.053-0.406v235.965c0 81.475 0 162.95 0 243.979 0 17.809 2.226 28.049 23.151 20.48 1.919-0.728 4.138-1.15 6.456-1.15s4.536 0.422 6.585 1.192l-0.129-0.043c50.31 20.925 93.941 0 138.908-20.48 17.254-7.312 37.318-11.561 58.375-11.561 10.856 0 21.449 1.13 31.666 3.278l-0.998-0.176c19.59 4.452 23.597-2.226 23.597-20.925-0.171-2.133-0.268-4.618-0.268-7.126 0-38.96 23.494-72.433 57.088-87.023l0.613-0.237c8.025-2.751 17.271-4.339 26.887-4.339 45.291 0 82.355 35.222 85.294 79.769l0.014 0.257c0 4.452 0 8.904 0 12.911 0 44.522 0 44.522 44.522 47.638 22.706 0 23.597-6.678 23.597-24.487-0.89-117.983-0.89-236.41-0.89-354.393zM759.541 627.868c-22.788-16.786-51.417-26.865-82.4-26.865-12.65 0-24.908 1.68-36.562 4.83l0.979-0.225c-22.706 5.788-25.823 0-24.487-20.925s0-44.522 0-65.002c0.124-1.34 0.194-2.899 0.194-4.474 0-26.079-19.33-47.644-44.444-51.147l-0.272-0.031c-24.042 0-44.522 20.925-44.522 53.426 0 10.685 0 21.816 0 32.501s0 8.904 0 13.357c3.562 27.158 0 37.843-33.837 26.713-16.96-6.281-36.55-9.915-56.989-9.915-42.526 0-81.378 15.732-111.054 41.693l0.196-0.168c-13.357 10.685-22.261 15.137-39.179 4.897-15.192-9.034-33.495-14.373-53.045-14.373-12.918 0-25.292 2.331-36.724 6.596l0.726-0.237c-38.312 10.514-65.996 45.028-65.996 86.009 0 5.637 0.524 11.151 1.525 16.497l-0.086-0.552c8.654 44.95 47.675 78.444 94.52 78.444 4.822 0 9.561-0.355 14.192-1.040l-0.524 0.064c26.713-4.007 36.508 4.452 49.419 25.823 29.051 50.797 82.913 84.475 144.641 84.475 7.081 0 14.058-0.443 20.906-1.303l-0.816 0.084c62.887-1.411 116.801-38.433 142.493-91.637l0.422-0.968c11.13-22.261 19.59-26.268 44.522-20.035 11.322 3.348 24.331 5.274 37.789 5.274 31.447 0 60.437-10.517 83.646-28.226l-0.335 0.246c23.4-15.602 38.608-41.887 38.608-71.724 0-30.949-16.362-58.077-40.908-73.204l-0.371-0.213zM890.435 262.344c0.167-1.692 0.262-3.656 0.262-5.643 0-33.686-27.308-60.995-60.995-60.995-2.13 0-4.235 0.109-6.31 0.322l0.26-0.022c-11.576 0-24.042 0-35.617 0s-22.261 0-21.816 18.699 8.904 17.363 20.925 16.473h16.473c30.275 0 44.522 14.692 44.522 44.522 0 40.070 0 80.139 0 120.209s-11.576 44.522-47.193 44.522c-11.13 0-30.72-12.021-32.501 13.357 0 13.357 0 24.042 17.809 22.706s26.268 0 39.179 0c1.259 0.090 2.728 0.141 4.209 0.141 34.67 0 62.776-28.106 62.776-62.776 0-1.773-0.074-3.53-0.218-5.266l0.015 0.227c0-24.932 0-49.864 0-74.797v0c0.445-24.932 0.89-48.974 0.445-73.016z" />
<glyph unicode="&#xe901;" glyph-name="misc" d="M22.261 937.739v-979.478h979.478v979.478zM975.026-15.026h-926.052v926.052h926.052zM509.774 237.857c-0.324-0.009-0.706-0.014-1.089-0.014-11.388 0-21.702 4.597-29.188 12.037l0.002-0.002c-7.439 7.349-12.047 17.55-12.047 28.827 0 0.509 0.009 1.016 0.028 1.52l-0.002-0.073c0.615 25.802 6.623 50.053 16.934 71.873l-0.461-1.084c11.9 27.15 28.947 50.047 50.073 68.363l0.237 0.201c15.583 13.357 29.83 26.713 44.522 39.624 12.682 12.616 23.266 27.326 31.191 43.57l0.419 0.952c8.174 17.384 12.945 37.755 12.945 59.24 0 1.087-0.012 2.17-0.036 3.251l0.003-0.161c0.003 0.268 0.004 0.585 0.004 0.901 0 17.8-4.622 34.521-12.732 49.027l0.262-0.509c-8.38 15.665-20.309 28.449-34.765 37.603l-0.407 0.241c-15.174 9.255-33.53 14.734-53.166 14.734-1.031 0-2.058-0.015-3.082-0.045l0.15 0.003c-1.571 0.066-3.415 0.104-5.267 0.104-22.653 0-43.99-5.64-62.681-15.592l0.721 0.35c-17.341-9.334-31.010-23.577-39.387-40.862l-0.238-0.543c-7.646-16.94-12.101-36.726-12.101-57.553 0-1.68 0.029-3.354 0.087-5.020l-0.007 0.242c0.001-0.097 0.001-0.213 0.001-0.328 0-11.549-4.397-22.070-11.609-29.982l0.032 0.035c-7.283-7.452-17.435-12.074-28.667-12.074-0.722 0-1.44 0.019-2.153 0.057l0.1-0.004c-1.075-0.1-2.325-0.158-3.589-0.158-22.622 0-40.96 18.338-40.96 40.96 0 0.525 0.010 1.048 0.029 1.568l-0.002-0.075c-0.029 1.269-0.045 2.764-0.045 4.263 0 36.028 9.426 69.855 25.947 99.148l-0.524-1.011c16.993 29.373 41.214 52.88 70.288 68.542l0.947 0.466c29.961 16.015 65.534 25.422 103.305 25.422 1.56 0 3.117-0.016 4.67-0.048l-0.232 0.004c1.092 0.022 2.38 0.034 3.671 0.034 33.666 0 65.365-8.416 93.111-23.258l-1.060 0.518c27.846-14.952 50.466-36.43 66.354-62.465l0.429-0.756c15.414-25.815 24.526-56.938 24.526-90.189 0-1.319-0.014-2.635-0.043-3.947l0.003 0.196c0.023-1.141 0.036-2.487 0.036-3.835 0-27.682-5.577-54.062-15.669-78.077l0.495 1.328c-10.548-23.025-24.145-42.748-40.57-59.716l0.055 0.057c-18.307-18.682-37.62-36.161-57.938-52.438l-1.276-0.988c-14.002-11.27-24.435-26.456-29.667-43.891l-0.162-0.63c-4.735-13.168-7.779-28.38-8.449-44.206l-0.011-0.316c0.031-0.593 0.049-1.286 0.049-1.984 0-22.376-18.139-40.515-40.515-40.515-1.428 0-2.839 0.074-4.23 0.218l0.174-0.015zM509.774 83.812c-31.327 0.958-56.475 26.106-57.431 57.343l-0.002 0.090c-0.005 0.282-0.008 0.616-0.008 0.95 0 15.774 6.669 29.99 17.341 39.982l0.030 0.028c9.802 10.69 23.833 17.367 39.422 17.367 0.228 0 0.455-0.001 0.682-0.004h-0.035c32.011-0.493 57.83-26.312 58.323-58.277l0.001-0.047c0.002-0.192 0.004-0.42 0.004-0.647 0-15.59-6.677-29.62-17.328-39.387l-0.040-0.036c-10.021-10.703-24.237-17.372-40.010-17.372-0.334 0-0.667 0.003-1 0.009l0.050-0.001zM872.626 86.929h66.337v-65.892h-66.337v65.892zM67.228 86.929h66.337v-65.892h-66.337v65.892zM84.146 879.861h66.337v-65.892h-66.337v65.892zM849.030 879.861h66.337v-65.892h-66.337v65.892z" />
<glyph unicode="&#xe902;" glyph-name="rec" d="M556.077-52.87h-244.424c-12.466 0-28.939 5.788-29.83 28.494 0 11.13 0 22.706 0 33.837v60.104c-0.3 1.539-0.471 3.31-0.471 5.12s0.172 3.581 0.499 5.295l-0.028-0.175c3.341 13.959 15.24 24.347 29.725 25.371l0.105 0.006h4.452c12.911 2.671 26.268 5.788 38.734 9.35 23.585 7.458 43.498 20.9 58.625 38.562l0.143 0.172c7.894 9.484 14.615 20.346 19.701 32.082l0.333 0.864c3.346 6.668 10.13 11.165 17.964 11.165 0.415 0 0.827-0.013 1.236-0.038l-0.056 0.003h125.106c0.274 0.016 0.595 0.025 0.918 0.025 6.939 0 12.903-4.178 15.513-10.156l0.042-0.109c8.406-19.609 20.648-36.134 35.889-49.273l0.173-0.146c21.642-17.564 48.581-29.414 78.085-32.877l0.718-0.069c23.151-3.117 37.398-10.685 37.398-37.398v-7.569c0-25.823 0-52.090 0-77.913-0.016-5.896-0.992-11.558-2.781-16.846l0.11 0.373c-3.034-10.863-12.843-18.699-24.483-18.699-0.001 0-0.003 0-0.004 0h-28.939zM451.005 175.972c-6.407-13.932-13.995-25.94-22.934-36.793l0.228 0.285c-17.928-20.694-41.339-36.188-67.978-44.253l-1.031-0.268c-13.802-4.007-27.603-7.123-40.96-9.795h-4.452c-9.795 0-10.685-4.897-11.13-8.014-0.202-0.87-0.317-1.868-0.317-2.894s0.116-2.024 0.334-2.984l-0.017 0.090v-59.659c0-11.13 0-22.261 0-32.946s0-6.233 10.24-7.123h401.141c4.007 0 4.452 0 4.452 2.226 0.289 1.673 0.455 3.6 0.455 5.565s-0.165 3.892-0.483 5.767l0.028-0.202c0 25.823 0 51.645 0 77.913v6.678c0 10.685 0 12.911-18.254 15.583-34.21 4.162-64.645 17.761-89.342 38.082l0.298-0.238c-17.141 14.764-30.965 32.862-40.55 53.342l-0.41 0.975h-119.318zM593.92 228.953h-148.703v8.904l-2.671 15.583c0 10.685-4.452 21.37-7.123 31.61-9.678 31.091-23.48 58.147-41.066 82.268l0.551-0.793c-7.569 11.576-15.583 23.151-23.597 34.282l-10.685 15.583-10.685 4.452c-10.189 3.496-18.864 7.407-27.104 12.004l0.836-0.428c-73.242 41.012-135.916 90.634-189.654 148.652l-0.453 0.495c-26.475 28.051-47.983 61.133-62.899 97.61l-0.767 2.119c-8.147 19.49-12.889 42.134-12.911 65.883v0.009c-0.046 1.208-0.072 2.627-0.072 4.051 0 45.96 27.311 85.542 66.588 103.402l0.712 0.29c20.77 10.324 45.035 17.047 70.685 18.671l0.55 0.028c0 10.685 0 20.925 0 30.275 0.4 7.834 1.354 15.168 2.834 22.308l-0.162-0.938c2.028 10.653 10.865 18.732 21.732 19.584l0.083 0.005h12.466c14.649 2.084 32.046 3.525 49.687 3.994l0.623 0.013h496.417c6.233 0 12.466 0 18.254 0 2.604 0.286 5.624 0.449 8.682 0.449s6.078-0.163 9.051-0.481l-0.369 0.032c15.354-1.603 27.22-14.476 27.22-30.12 0-0.681-0.022-1.357-0.067-2.026l0.005 0.091v-3.117c0.318-5.917 0.499-12.843 0.499-19.812s-0.181-13.895-0.539-20.775l0.040 0.963c27.735-3.27 52.792-12.452 74.639-26.255l-0.733 0.432c21.54-12.975 37.473-33.398 44.353-57.63l0.168-0.694c3.332-12.341 5.246-26.51 5.246-41.127 0-8.266-0.612-16.389-1.794-24.327l0.11 0.897c-7.862-46.813-27.417-88.076-55.547-121.966l0.34 0.421c-35.144-45.064-75.818-83.615-121.518-115.455l-1.808-1.192c-27.603-20.035-50.755-35.172-73.016-48.974-10.685-6.678-22.261-12.021-32.946-17.363l-4.007-5.343-28.494-44.522c-17.261-23.881-32.242-51.19-43.651-80.29l-0.87-2.52c-4.958-14.298-8.3-30.843-9.325-48.013l-0.025-0.516zM464.807 251.214h108.188c1.852 16.56 5.298 31.637 10.242 46.018l-0.447-1.496c11.927 33.979 26.975 63.407 45.374 90.366l-0.852-1.323 28.939 44.522 7.123 10.24h2.671c13.568 6.043 24.671 11.843 35.391 18.22l-1.555-0.856c21.37 13.357 44.522 28.939 71.68 48.083 45.673 31.373 84.848 67.859 118.042 109.34l0.831 1.074c25.731 30.523 44.093 68.078 51.858 109.372l0.232 1.487c1.226 6.796 1.927 14.619 1.927 22.605 0 11.741-1.515 23.129-4.36 33.977l0.207-0.93c-6.381 19.185-19.328 34.733-36.118 44.317l-0.389 0.205c-19.297 11.682-42.070 19.743-66.429 22.629l-0.799 0.077h-19.59v11.13c0.64 7.268 1.005 15.723 1.005 24.264s-0.365 16.997-1.080 25.353l0.075-1.088v6.678c0 7.123 0 8.904-9.795 10.685-1.874 0.373-4.029 0.587-6.233 0.587s-4.359-0.214-6.444-0.621l0.211 0.034h-525.357c-12.369-0.269-24.23-1.231-35.879-2.854l1.598 0.182-12.466-0.89s0 0 0 0-2.226-12.021-2.671-17.809c-0.407-5.859-0.639-12.697-0.639-19.59s0.232-13.731 0.689-20.508l-0.050 0.918v-12.021h-12.466c-27.080-0.47-52.453-7.333-74.814-19.136l0.908 0.437c-32.57-13.725-55.018-45.384-55.018-82.286 0-2.378 0.093-4.734 0.276-7.065l-0.019 0.308c0-0.123-0.001-0.268-0.001-0.414 0-20.17 3.757-39.462 10.609-57.215l-0.369 1.086c15.456-35.857 36.154-66.543 61.514-92.681l-0.074 0.076c52.325-57.033 112.964-105.329 180.229-143.251l3.646-1.89c6.4-3.506 14.037-6.958 21.943-9.853l1.209-0.387 14.247-5.343h3.117l14.247-20.925 23.597-34.727c18.705-25.491 33.868-55.057 43.934-86.889l0.588-2.154c3.117-11.13 5.343-22.261 7.569-33.837zM328.125 502.762l-40.515 30.275-20.48 15.583-28.939 20.925c-32.343 25.545-60.127 54.885-83.268 87.73l-0.878 1.314c-17.166 21.978-29.4 48.632-34.569 77.728l-0.158 1.075c-0.605 3.068-0.951 6.596-0.951 10.205 0 24.467 15.916 45.216 37.959 52.459l0.39 0.111c7.726 2.697 17.154 5.166 26.826 6.938l1.223 0.186 23.597 3.562 16.918 2.671 2.226-10.685c7.123-40.515 14.247-76.577 21.37-109.078 12.553-55.371 31.567-104.263 56.655-149.309l-1.448 2.833zM170.963 671.054c22.594-32.133 48.763-59.717 78.42-83.071l0.829-0.629 14.247-10.685c-15.001 31.98-27.866 69.438-36.683 108.43l-0.716 3.765c-4.452 30.275-12.911 62.776-19.59 99.729l-18.699-3.117c-9.661-1.825-17.887-3.982-25.886-6.635l1.4 0.402c-13.776-3.976-23.68-16.472-23.68-31.281 0-2.805 0.355-5.527 1.023-8.123l-0.049 0.225c4.143-26.373 14.548-49.769 29.646-69.363l-0.262 0.354zM714.574 510.776l21.816 44.522c28.234 52.638 49.902 113.715 61.742 178.229l0.589 3.865v9.795c3.117 17.363 5.788 34.727 8.904 52.090v11.13l14.247-2.671c16.52-1.905 31.579-5.665 45.8-11.116l-1.278 0.43c20.7-7.045 35.326-26.314 35.326-48.999 0-1.401-0.056-2.79-0.165-4.163l0.012 0.181c-0.935-23.101-7.597-44.463-18.592-62.945l0.338 0.614c-26.427-43.966-58.378-81.446-95.523-112.997l-0.644-0.534c-10.685-9.35-21.816-18.254-32.946-26.268zM829.44 786.81c-2.226-13.802-4.897-27.603-7.123-41.405v-9.795c-9.647-55.898-25.118-105.817-46.128-152.713l1.606 4.011c35.384 30.033 65.388 64.996 89.311 104.084l1.068 1.878c8.946 15.074 14.611 33.049 15.572 52.263l0.011 0.273c0.091 0.883 0.144 1.908 0.144 2.945 0 13.759-9.178 25.373-21.745 29.057l-0.214 0.054c-9.334 3.988-20.247 7.235-31.594 9.218l-0.906 0.131z" />
<glyph unicode="&#xe903;" glyph-name="whatsHappening" d="M245.76 95.388c-9.626 0.030-19.007 1.001-28.078 2.826l0.92-0.154c-35.64 3.693-63.742 31.642-67.642 66.887l-0.031 0.341c-2.671 14.692-7.123 29.83-11.13 44.522-5.643 18.005-10.469 39.681-13.552 61.913l-0.25 2.198c0 27.603 0 53.871 0 79.694v14.247c0.481 3.477 0.756 7.494 0.756 11.576s-0.275 8.099-0.806 12.035l0.051-0.459h-34.727c-38.546 2.767-68.77 34.717-68.77 73.727 0 1.943 0.075 3.869 0.222 5.774l-0.016-0.253c0 31.165 0 61.885 0 89.043-0.381 2.826-0.598 6.092-0.598 9.409 0 40.021 31.62 72.656 71.24 74.287l0.148 0.005h27.603c40.515 0 82.365 0 123.77 0 118.428-6.233 231.958 40.515 346.379 142.47l13.357 12.466 4.452 4.007c8.146 8.696 19.701 14.114 32.52 14.114 4.273 0 8.404-0.602 12.316-1.725l-0.314 0.077c18.679-7.317 32.176-24.080 34.7-44.253l0.027-0.268c2.002-9.609 3.148-20.652 3.148-31.963 0-1.128-0.011-2.254-0.034-3.377l0.003 0.168q0-70.79 0-141.579c0-11.13 0-11.13 6.233-12.911 26.18-8.63 44.743-32.868 44.743-61.441 0-1.88-0.080-3.742-0.238-5.581l0.017 0.24c0.017-0.549 0.026-1.195 0.026-1.843 0-28.501-18.469-52.688-44.092-61.246l-0.456-0.132c-4.452 0-4.897 0-4.897-9.35 0-31.61 0-63.221 0-94.831v-53.871c0.136-1.728 0.214-3.742 0.214-5.774 0-23.899-10.761-45.285-27.701-59.577l-0.117-0.096c-6.287-6.3-14.979-10.198-24.582-10.198-10.664 0-20.205 4.806-26.575 12.371l-0.043 0.052c-45.493 45.317-97.51 84.13-154.51 114.899l-3.543 1.748c-35.859 19.81-77.448 35.235-121.424 44.055l-2.791 0.467c-12.021 2.226-29.83 2.226-44.522-27.603-5.437-9.259-8.649-20.394-8.649-32.278s3.211-23.019 8.814-32.583l-0.165 0.305c3.162-4.707 5.047-10.502 5.047-16.737 0-4.245-0.874-8.286-2.451-11.953l0.075 0.197c-4.527-8.315-7.188-18.21-7.188-28.727 0-14.249 4.886-27.357 13.075-37.74l-0.098 0.129c8.926-13.025 19.059-24.29 30.487-34.087l0.233-0.195c6.085-4.171 10.345-10.623 11.555-18.098l0.021-0.156c-0.145-8.472-3.509-16.13-8.918-21.83l0.013 0.014c-10.554-11.819-24.093-20.758-39.439-25.649l-0.631-0.174c-12.836-4.531-27.643-7.28-43.052-7.567l-0.134-0.002zM144.696 366.080v-12.466c0-26.268 0-52.981 0-79.694 3.427-22.799 8.238-42.925 14.564-62.368l-0.762 2.709c4.007-14.692 8.014-29.83 11.13-44.522 1.059-29.387 23.872-53.125 52.764-55.637l0.217-0.015c6.941-1.462 14.917-2.299 23.088-2.299 13.572 0 26.606 2.309 38.728 6.556l-0.821-0.25c12.662 3.895 23.374 11.010 31.54 20.398l0.070 0.082c4.452 4.897 4.452 7.123 4.452 7.569s0 3.562-4.452 5.343c-12.94 11.221-24.238 23.792-33.846 37.626l-0.436 0.663c-10.542 13.227-16.915 30.184-16.915 48.629 0 11.060 2.292 21.586 6.426 31.127l-0.196-0.507c0 4.897 0 6.678 0 12.466v0c-8.63 12.865-13.774 28.698-13.774 45.733 0 14.935 3.954 28.946 10.871 41.045l-0.214-0.406c8.66 22.345 29.983 37.9 54.939 37.9 3.715 0 7.349-0.345 10.872-1.004l-0.364 0.057c48.677-9.014 92.115-24.478 132.013-45.714l-2.454 1.192c62.202-33.65 115.668-73.631 162.536-120.24l-0.032 0.031c3.125-3.992 7.944-6.534 13.357-6.534s10.232 2.542 13.329 6.497l0.028 0.037c13.767 11.024 22.507 27.831 22.507 46.679 0 1.905-0.089 3.79-0.264 5.649l0.018-0.238v151.374c-0.329 1.464-0.518 3.145-0.518 4.87 0 11.237 8.006 20.604 18.625 22.709l0.147 0.024c18.239 5.843 31.212 22.649 31.212 42.486 0 0.716-0.017 1.428-0.050 2.136l0.004-0.1c0.289 1.907 0.454 4.106 0.454 6.345 0 19.493-12.528 36.060-29.971 42.090l-0.313 0.094c-11.637 2.669-20.186 12.936-20.186 25.2 0 1.956 0.217 3.861 0.63 5.692l-0.033-0.172c0 47.193 0 94.386 0 141.134 0.017 0.864 0.027 1.882 0.027 2.902 0 10.153-0.982 20.077-2.857 29.681l0.158-0.973c-1.553 13.237-9.989 24.191-21.582 29.292l-0.234 0.092c-1.912 0.465-4.106 0.731-6.363 0.731-8.006 0-15.228-3.354-20.338-8.733l-0.011-0.012-4.452-4.452-14.247-12.911c-118.428-105.517-235.965-154.045-359.736-147.367-40.96 0-82.365 0-122.435 0h-28.049c-31.165-0.445-52.090-25.823-52.536-65.002 0-28.939 0-59.659 0-89.043-0.127-1.417-0.2-3.066-0.2-4.731 0-29.014 22.026-52.883 50.269-55.798l0.24-0.020h20.035c16.473 0 25.377 0 31.165-6.678s4.897-16.918 2.226-36.953zM854.372 505.878c-6.94-55.909-52.436-99.264-108.739-102.828l-0.339-0.017c52.958 12.75 91.697 59.713 91.697 115.725 0 60.624-45.382 110.649-104.028 117.955l-0.581 0.059c2.938 0.317 6.345 0.498 9.795 0.498s6.857-0.181 10.214-0.533l-0.419 0.036c58.481-7.361 103.264-56.784 103.264-116.668 0-5.014-0.314-9.955-0.923-14.804l0.059 0.578zM1000.403 501.871c-9.974-82.159-76.682-145.96-159.323-151.347l-0.51-0.027c75.722 20.359 130.548 88.395 130.548 169.237 0 87.715-64.544 160.354-148.728 173.016l-0.964 0.119c4.329 0.313 9.378 0.491 14.47 0.491s10.141-0.178 15.143-0.529l-0.674 0.038c85.618-10.406 151.302-82.645 151.302-170.225 0-7.322-0.459-14.536-1.35-21.616l0.087 0.843z" />
<glyph unicode="&#xe904;" glyph-name="menuLogo" horiz-adv-x="3351" d="M479.108-55.436q-62.619 0-112.361 29.293c-32.966 19.495-59.595 46.512-78.077 78.792l-0.554 1.049q-28.858 50.548-29.696 113.943v365.909c-0.025 0.53-0.040 1.152-0.040 1.776 0 10.907 4.427 20.779 11.583 27.919l0.001 0.001c7.266 6.965 17.145 11.253 28.025 11.253 0.446 0 0.89-0.007 1.332-0.021l-0.064 0.002c0.718 0.048 1.557 0.075 2.402 0.075 21.319 0 38.602-17.283 38.602-38.602 0-0.845-0.027-1.684-0.081-2.515l0.006 0.113v-216.654c18.444 22.067 41.012 40.013 66.606 52.8l1.195 0.541c25.507 12.416 55.491 19.675 87.17 19.675 38.815 0 75.085-10.897 105.918-29.799l-0.885 0.505c31.033-19.768 55.932-46.596 72.871-78.316l0.547-1.121q26.841-50.145 26.872-113.54t-29.293-113.943c-19.252-33.286-45.991-60.283-78.029-79.289l-1.005-0.552q-49.648-29.324-113.043-29.293zM479.108 16.772c0.682-0.012 1.486-0.019 2.291-0.019 26.132 0 50.553 7.325 71.322 20.033l-0.599-0.341c21.516 13.369 38.799 31.675 50.58 53.399l0.372 0.749c11.888 21.661 18.881 47.464 18.881 74.901 0 0.755-0.005 1.509-0.016 2.261l0.001-0.114c0.017 0.848 0.026 1.847 0.026 2.849 0 27.201-7 52.768-19.297 74.996l0.404-0.797c-12.323 22.103-29.57 40.115-50.337 52.986l-0.615 0.355c-20.861 12.367-45.984 19.675-72.813 19.675s-51.951-7.308-73.484-20.042l0.672 0.368c-21.518-13.067-38.816-31.12-50.618-52.616l-0.365-0.725c-11.645-21.449-18.491-46.964-18.491-74.079 0-1.044 0.010-2.086 0.030-3.125l-0.002 0.156c-0.010-0.674-0.016-1.47-0.016-2.267 0-27.35 6.839-53.103 18.9-75.642l-0.421 0.861c23.44-44.274 69.216-73.924 121.917-73.924 0.59 0 1.178 0.004 1.766 0.011l-0.089-0.001zM1590.458-55.436q-62.557 0-112.33 29.293c-32.986 19.482-59.628 46.502-78.109 78.792l-0.553 1.049q-28.889 50.548-29.696 113.943v365.909c-0.023 0.504-0.036 1.094-0.036 1.688 0 10.951 4.463 20.859 11.67 28.006l0.003 0.003c7.436 7.801 17.907 12.652 29.51 12.652 22.502 0 40.743-18.241 40.743-40.743 0-0.564-0.011-1.126-0.034-1.685l0.003 0.080v-216.654c18.438 22.074 41.008 40.021 66.607 52.801l1.194 0.54c25.503 12.416 55.481 19.675 87.156 19.675 38.809 0 75.074-10.897 105.9-29.799l-0.885 0.504c31.050-19.759 55.962-46.589 72.903-78.317l0.546-1.12q26.841-50.145 26.872-113.54t-29.293-113.943c-19.269-33.282-46.017-60.278-78.059-79.288l-1.006-0.553q-49.648-29.324-113.105-29.293zM1590.458 16.772c0.688-0.012 1.5-0.020 2.313-0.020 26.135 0 50.559 7.325 71.332 20.034l-0.599-0.341c21.516 13.369 38.799 31.675 50.58 53.399l0.372 0.749c11.888 21.661 18.881 47.464 18.881 74.901 0 0.755-0.005 1.509-0.016 2.261l0.001-0.114c0.017 0.848 0.026 1.847 0.026 2.849 0 27.201-7 52.768-19.297 74.996l0.404-0.797c-12.323 22.103-29.57 40.115-50.337 52.986l-0.615 0.355c-20.867 12.366-45.994 19.674-72.828 19.674s-51.962-7.308-73.5-20.042l0.672 0.368c-21.5-13.078-38.785-31.128-50.587-52.616l-0.365-0.725c-11.738-21.519-18.641-47.134-18.641-74.36 0-0.945 0.008-1.888 0.025-2.829l-0.002 0.141c-0.008-0.589-0.012-1.284-0.012-1.981 0-27.464 6.896-53.318 19.051-75.924l-0.421 0.856c23.416-44.272 69.175-73.925 121.86-73.925 0.598 0 1.196 0.004 1.793 0.011l-0.091-0.001zM2154.589-55.436q-62.619 0-112.33 29.293c-32.983 19.486-59.624 46.505-78.109 78.792l-0.553 1.049q-28.858 50.548-29.665 113.943v365.909c-0.024 0.512-0.037 1.113-0.037 1.717 0 10.936 4.451 20.833 11.641 27.977l0.002 0.002c7.436 7.801 17.907 12.652 29.51 12.652 22.502 0 40.743-18.241 40.743-40.743 0-0.564-0.011-1.126-0.034-1.685l0.003 0.080v-216.654c18.438 22.074 41.008 40.021 66.607 52.801l1.194 0.54c25.507 12.416 55.491 19.675 87.17 19.675 38.815 0 75.085-10.897 105.918-29.799l-0.885 0.505c31.040-19.761 55.941-46.59 72.872-78.317l0.546-1.121q26.872-50.145 26.872-113.54t-29.262-113.943c-19.272-33.28-46.019-60.276-78.059-79.288l-1.006-0.553q-49.742-29.324-113.136-29.293zM2154.589 16.772c0.682-0.012 1.486-0.019 2.291-0.019 26.132 0 50.553 7.325 71.322 20.033l-0.599-0.341c21.523 13.361 38.808 31.669 50.581 53.399l0.371 0.749c11.888 21.661 18.881 47.464 18.881 74.901 0 0.755-0.005 1.509-0.016 2.261l0.001-0.114c0.017 0.848 0.026 1.847 0.026 2.849 0 27.201-7 52.768-19.297 74.996l0.404-0.797c-12.314 22.11-29.563 40.124-50.337 52.987l-0.615 0.354c-20.861 12.367-45.984 19.675-72.813 19.675s-51.951-7.308-73.484-20.042l0.672 0.368c-21.506-13.071-38.793-31.123-50.587-52.616l-0.365-0.725c-11.645-21.449-18.491-46.964-18.491-74.079 0-1.044 0.010-2.086 0.030-3.125l-0.002 0.156c-0.010-0.674-0.016-1.47-0.016-2.267 0-27.35 6.839-53.103 18.9-75.642l-0.421 0.861c23.416-44.272 69.175-73.925 121.86-73.925 0.598 0 1.196 0.004 1.793 0.011l-0.091-0.001zM2602.325-52.24c-0.521-0.009-1.136-0.015-1.752-0.015-22.785 0-43.882 7.223-61.129 19.503l0.324-0.219c-18.493 13.352-33.027 31.103-42.221 51.756l-0.322 0.81c-9.669 21.502-15.302 46.609-15.302 73.032 0 1.259 0.013 2.516 0.038 3.769l-0.003-0.188v438.148c-0.010 0.333-0.016 0.724-0.016 1.116 0 22.176 17.977 40.153 40.153 40.153s40.153-17.977 40.153-40.153c0-0.392-0.006-0.784-0.017-1.173l0.001 0.057v-438.148c0-19.766 3.724-36.119 11.233-48.935s17.098-19.27 28.858-19.27h20.077c0.344 0.013 0.748 0.020 1.153 0.020 9.906 0 18.798-4.338 24.882-11.218l0.031-0.035c6.251-7.246 10.059-16.754 10.059-27.152 0-0.611-0.013-1.219-0.039-1.824l0.003 0.086c0.001-0.088 0.001-0.193 0.001-0.298 0-11.859-5.994-22.319-15.117-28.514l-0.12-0.077q-15.236-11.233-39.315-11.233zM3098.252 148.775c6.437 6.129 10.44 14.763 10.44 24.332 0 0.337-0.005 0.672-0.015 1.007l0.001-0.049q0 63.364-23.676 111.926c-15.44 31.894-38.913 57.819-67.84 75.797l-0.768 0.445q-44.963 27.679-107.52 27.679-63.395 0-112.361-28.486c-32.401-18.957-58.432-45.635-76.086-77.588l-0.528-1.043q-27.679-50.176-27.679-115.96 0-64.977 29.293-115.153c19.536-33.29 47.027-60.015 79.941-78.088l1.079-0.543q51.759-28.486 118.381-28.486c27.884 0.305 54.509 5.283 79.262 14.183l-1.686-0.529c25.943 8.336 48.467 20.352 68.317 35.664l-0.515-0.382q13.622 10.426 12.847 24.824t-14.46 26.469c-6.103 5.267-14.113 8.476-22.871 8.476-0.556 0-1.109-0.013-1.659-0.039l0.078 0.003c-9.891-0.358-18.914-3.802-26.206-9.39l0.109 0.081c-12.141-8.624-26.147-15.767-41.149-20.72l-1.115-0.319c-15.129-5.721-32.615-9.118-50.869-9.308l-0.083-0.001q-45.739 0-81.051 20.046c-38.621 21.733-65.937 59.656-72.849 104.319l-0.103 0.812h304.842c0.382-0.014 0.831-0.022 1.282-0.022 9.777 0 18.66 3.825 25.235 10.061l-0.016-0.015zM2830.615 300.823q32.551 19.952 78.258 19.952 40.091 0 68.267-18.432c18.747-12.463 33.574-29.45 43.125-49.439l0.317-0.737c6.912-14.343 11.906-30.993 14.1-48.514l0.081-0.794h-266.861c2.815 16.107 7.518 30.508 13.962 43.914l-0.433-1c10.994 23.040 27.836 41.776 48.638 54.762l0.545 0.317zM1186.475 68.748c0.652 2.203 1.365 4.375 1.955 6.609 6.347 21.562 9.999 46.335 9.999 71.96 0 0.676-0.003 1.352-0.008 2.026l0.001-0.103v197.415c0.010 0.336 0.016 0.731 0.016 1.127 0 22.604-18.325 40.929-40.929 40.929s-40.929-18.325-40.929-40.929c0-0.396 0.006-0.791 0.017-1.185l-0.001 0.058v-197.415q0-44.932-16.88-74.224c-10.587-18.853-26.243-33.77-45.129-43.168l-0.61-0.275c-14.17-6.905-30.669-11.575-48.076-13.059l-0.518-0.036c-17.478 1.712-33.495 6.385-48.086 13.522l0.826-0.365c-19.503 9.662-35.162 24.582-45.467 42.916l-0.272 0.527q-16.849 29.293-16.849 74.224v197.26c0 22.604-18.325 40.929-40.929 40.929s-40.929-18.325-40.929-40.929v-197.384c-0.005-0.605-0.008-1.321-0.008-2.038 0-25.712 3.698-50.56 10.591-74.042l-0.467 1.855c0.465-1.8 1.024-3.537 1.552-5.275 1.427-4.437 2.855-8.875 4.561-13.064 2.017-5.182 4.406-10.209 6.92-15.143 0.776-1.489 1.334-3.103 2.11-4.624 0.465-0.807 1.024-1.489 1.458-2.265 0.776-1.334 1.303-2.762 2.11-4.096 1.831-2.948 3.972-5.585 5.927-8.409s4.22-6.206 6.516-9.309c1.272-1.645 2.7-3.103 4.034-4.717 13.512-16.411 29.762-29.999 48.145-40.215l0.852-0.434c6.215-3.465 13.687-6.96 21.406-9.959l1.277-0.436c21.403-8.358 46.181-13.202 72.091-13.202 0.837 0 1.674 0.005 2.509 0.015l-0.127-0.001h0.31c0.59 0 1.148 0 1.738 0 0.829-0.013 1.807-0.020 2.786-0.020 32.408 0 62.98 7.865 89.91 21.79l-1.094-0.515c1.769 0.9 3.693 1.552 5.461 2.513 18.335 10.118 33.889 22.861 46.79 37.94l0.19 0.227c2.265 2.576 4.592 5.089 6.703 7.82 1.645 2.141 3.103 4.468 4.748 6.734 2.358 3.351 4.903 6.547 7.075 10.116 0.962 1.583 1.614 3.289 2.544 4.903 0.31 0.559 0.714 1.024 1.024 1.583 0.559 1.055 0.931 2.234 1.489 3.289 2.509 4.571 5.126 10.169 7.414 15.935l0.375 1.070c1.334 3.724 2.762 7.633 3.879 11.543zM350.829 879.321c0-29.888-24.229-54.117-54.117-54.117s-54.117 24.229-54.117 54.117c0 29.888 24.229 54.117 54.117 54.117s54.117-24.229 54.117-54.117zM334.941 761.034c0-21.113-17.116-38.229-38.229-38.229s-38.229 17.116-38.229 38.229c0 21.113 17.116 38.229 38.229 38.229s38.229-17.116 38.229-38.229zM323.056 659.285c0-14.55-11.795-26.345-26.345-26.345s-26.345 11.795-26.345 26.345c0 14.55 11.795 26.345 26.345 26.345s26.345-11.795 26.345-26.345z" />
<glyph unicode="&#xe905;" d="M967.903 777.906l-32.946 11.13-263.123 86.372c-6.608 2.19-14.216 3.453-22.118 3.453-16.718 0-32.116-5.653-44.386-15.152l0.167 0.124-370.421-222.609-163.84-100.619c-5.788-3.562-11.576-7.123-16.918-11.13-16.372-10.099-27.12-27.937-27.12-48.284 0-12.666 4.164-24.359 11.199-33.785l-0.106 0.149c8.014-13.357 16.028-27.158 24.487-40.515l65.892-109.078 150.483-248.877c9.065-19.143 27.806-32.367 49.736-33.387l0.128-0.005c9.942 0.445 19.217 2.861 27.588 6.863l-0.429-0.185c7.502 2.973 13.953 6.412 19.951 10.47l-0.361-0.23 146.477 89.043 389.565 234.63c24.009 13.757 40.805 37.76 44.474 65.889l0.048 0.449c6.233 44.522 13.357 85.482 20.48 127.777l15.137 89.043q7.123 40.070 13.357 80.139c0.897 3.456 1.411 7.423 1.411 11.51 0 23.188-16.567 42.506-38.51 46.765l-0.3 0.048zM979.478 722.699c-4.007-26.713-8.459-53.426-12.911-79.694l-15.137-89.043c-7.569-44.522-14.692-85.482-20.925-128.223-2.192-20.978-14.212-38.747-31.31-48.811l-0.3-0.163-389.565-234.63-146.477-89.043c-4.662-2.948-10.076-5.781-15.72-8.176l-0.753-0.284c-21.816-9.35-33.837-5.343-47.193 16.473l-149.148 249.767-65.892 109.078-24.042 40.515c-4.789 5.51-7.708 12.757-7.708 20.686 0 12.316 7.044 22.988 17.323 28.205l0.18 0.083c4.093 3.184 8.741 6.414 13.557 9.397l0.69 0.398 163.84 98.838 370.421 222.609c9.498 6.828 21.016 11.449 33.504 12.88l0.333 0.031c0.019 0 0.041 0 0.064 0 3.389 0 6.585-0.823 9.4-2.28l-0.114 0.054 300.522-100.174c17.363-3.117 21.816-10.24 17.363-28.494z" />
<glyph unicode="&#xe906;" glyph-name="Bubble_x3" d="M703.283 765.303c0-105.643-85.64-191.283-191.283-191.283s-191.283 85.64-191.283 191.283c0 105.643 85.64 191.283 191.283 191.283s191.283-85.64 191.283-191.283zM642.935 362.394c0-69.222-56.116-125.338-125.338-125.338s-125.338 56.116-125.338 125.338c0 69.222 56.116 125.338 125.338 125.338s125.338-56.116 125.338-125.338zM626.142 41.267c0-56.252-45.602-101.854-101.854-101.854s-101.854 45.602-101.854 101.854c0 56.252 45.602 101.854 101.854 101.854s101.854-45.602 101.854-101.854z" />
<glyph unicode="&#xe907;" d="M960.334 753.864l-300.522 100.174c-2.701 1.403-5.897 2.226-9.286 2.226-0.022 0-0.045 0-0.067 0h0.003c-12.821-1.463-24.339-6.083-34.052-13.059l0.216 0.147-370.421-222.609-162.059-101.51c-5.506-3.381-10.154-6.61-14.615-10.069l0.368 0.274c-10.459-5.3-17.503-15.971-17.503-28.288 0-7.929 2.919-15.176 7.741-20.725l-0.033 0.039 24.042-40.515 65.892-109.078 150.483-248.877c13.357-21.816 25.377-25.823 47.193-16.473 6.397 2.678 11.811 5.511 16.951 8.739l-0.478-0.28 146.477 89.043 389.565 234.63c17.399 10.227 29.418 27.996 31.587 48.697l0.024 0.277c6.233 44.522 13.357 85.482 20.925 128.223l15.137 89.043c4.452 26.268 8.904 52.981 12.911 79.694 3.117 17.363-1.336 24.487-20.48 30.275zM549.843 692.87c9.885 4.326 21.406 6.844 33.514 6.844 32.258 0 60.342-17.868 74.896-44.246l0.223-0.441c4.713-10.207 7.461-22.151 7.461-34.736 0-31.282-16.981-58.599-42.227-73.235l-0.406-0.217c-10.042-4.453-21.756-7.045-34.075-7.045-32.056 0-60.012 17.553-74.781 43.573l-0.222 0.426c-4.113 9.883-6.502 21.364-6.502 33.402 0 31.801 16.67 59.708 41.749 75.459l0.371 0.217zM513.781 220.494c-10.248-4.661-22.224-7.378-34.835-7.378-31.831 0-59.619 17.308-74.467 43.026l-0.221 0.415c-4.557 10.117-7.212 21.931-7.212 34.366 0 31.329 16.853 58.721 41.988 73.605l0.396 0.217c10.302 4.718 22.349 7.468 35.038 7.468 31.687 0 59.368-17.152 74.265-42.678l0.22-0.408c4.261-10.042 6.738-21.721 6.738-33.978 0-31.714-16.579-59.555-41.543-75.33l-0.366-0.216zM728.376 435.979c-31.165 0-62.33 0-93.496 0l-303.638-4.007c-12.686 0.245-22.907 10.465-23.151 23.128v0.023c-0.011 0.267-0.018 0.58-0.018 0.895 0 12.294 9.967 22.261 22.261 22.261 0.163 0 0.325-0.002 0.487-0.005h-0.024c21.816 0 44.522 0 66.337 0l326.79 4.007c1.575 0.354 3.383 0.557 5.238 0.557 9.757 0 18.204-5.604 22.3-13.769l0.065-0.144c8.014-17.363-3.117-33.391-23.151-33.837z" />
<glyph unicode="&#xe908;" d="M728.376 435.089c-31.165 0-62.33 0-93.496 0l-303.638-4.007c-12.686 0.245-22.907 10.465-23.151 23.128v0.023c-0.011 0.267-0.018 0.58-0.018 0.895 0 12.294 9.967 22.261 22.261 22.261 0.163 0 0.325-0.002 0.487-0.005h-0.024c21.816 0 44.522 0 66.337 0l326.79 4.007c1.575 0.354 3.383 0.557 5.238 0.557 9.757 0 18.204-5.604 22.3-13.769l0.065-0.144c8.014-16.473-3.117-32.501-23.151-32.946z" />
<glyph unicode="&#xe909;" d="M513.781 219.603c-10.248-4.661-22.224-7.378-34.835-7.378-31.831 0-59.619 17.308-74.467 43.026l-0.221 0.415c-4.557 10.117-7.212 21.931-7.212 34.366 0 31.329 16.853 58.721 41.988 73.605l0.396 0.217c10.302 4.718 22.349 7.468 35.038 7.468 31.687 0 59.368-17.152 74.265-42.678l0.22-0.408c4.079-9.846 6.448-21.281 6.448-33.269 0-31.594-16.454-59.344-41.261-75.15l-0.36-0.214z" />
<glyph unicode="&#xe90a;" d="M623.304 546.838c-10.042-4.453-21.756-7.045-34.075-7.045-32.056 0-60.012 17.553-74.781 43.573l-0.222 0.426c-4.113 9.883-6.502 21.364-6.502 33.402 0 31.801 16.67 59.708 41.749 75.459l0.371 0.217c9.885 4.326 21.406 6.844 33.514 6.844 32.258 0 60.342-17.868 74.896-44.246l0.223-0.441c4.713-10.207 7.461-22.151 7.461-34.736 0-31.282-16.981-58.599-42.227-73.235l-0.406-0.217z" />
<glyph unicode="&#xe90b;" d="M951.875 779.687c-7.294 24.551-23.17 44.624-44.075 57.184l-0.447 0.249c-20.823 12.692-45.382 21.525-71.66 24.839l-0.91 0.094c0.318 5.851 0.499 12.699 0.499 19.59s-0.181 13.739-0.539 20.54l0.040-0.951v3.117c0.024 0.446 0.037 0.969 0.037 1.495 0 15.39-11.655 28.058-26.62 29.659l-0.131 0.011c-5.029 1.269-10.841 2.071-16.815 2.224l-0.103 0.002c-2.672-0.321-5.767-0.505-8.904-0.505s-6.232 0.183-9.274 0.54l0.369-0.035h-28.049c-89.043 0-178.087 0-264.459 0h-193.224c-16.473 0-32.946 0-48.529-2.226h-12.911c-10.915-0.809-19.637-9.225-20.915-19.927l-0.010-0.108c-1.444-6.011-2.551-13.162-3.090-20.47l-0.027-0.456c0-9.35 0-19.144 0-29.83-25.327-2.043-48.628-8.889-69.606-19.629l1.043 0.485c-39.407-17.441-66.403-56.2-66.403-101.263 0-1.339 0.024-2.673 0.071-4l-0.005 0.192c0.042-23.262 4.617-45.444 12.888-65.726l-0.422 1.169c15.705-37.688 36.878-69.998 62.927-97.665l-0.152 0.163c52.691-57.215 113.597-105.781 181.081-144.106l3.685-1.926c7.106-3.686 15.778-7.443 24.714-10.645l1.554-0.486 10.24-4.007 10.24-15.583 23.151-33.391c16.473-22.856 29.951-49.296 39.068-77.689l0.556-2.004c2.671-10.24 4.897-20.48 6.678-31.165 1.098-3.957 2.184-9.075 3.005-14.28l0.111-0.857v-8.459h145.586v10.24c1.326 17.619 4.809 33.976 10.206 49.436l-0.411-1.352c12 31.11 26.994 57.998 45.166 82.379l-0.644-0.904q13.357 20.48 28.049 41.405l3.562 5.343c12.507 5.499 23.029 11.153 33.059 17.513l-1.004-0.595c21.816 13.357 44.522 28.494 71.68 47.638 46.247 32.504 85.884 70.302 119.288 113.192l0.921 1.229c27.613 32.498 47.142 72.693 54.986 116.926l0.221 1.502c0.66 5.369 1.036 11.584 1.036 17.887 0 15.685-2.331 30.827-6.665 45.096l0.287-1.097zM934.957 720.028c-7.574-41.996-25.672-78.861-51.458-108.941l0.258 0.308c-32.946-42.349-71.13-78.553-114.061-108.408l-1.695-1.116c-26.713-18.699-48.974-33.837-70.344-47.193-8.688-5.251-19.346-10.897-30.308-16.001l-2.193-0.917h-2.671l-7.123-10.685-28.049-41.405c-17.579-24.875-32.612-53.409-43.712-83.835l-0.809-2.537c-4.642-13.026-7.957-28.151-9.302-43.839l-0.047-0.683h-107.297v5.788c0 11.13-4.007 22.261-7.123 32.946-10.495 33.465-25.351 62.582-44.237 88.583l0.605-0.875c-7.569 11.576-15.583 22.706-23.151 33.837l-14.247 20.48h-3.117l-13.802 5.343c-9.045 3.413-16.527 6.858-23.734 10.747l1.028-0.507c-68.654 38.949-127.374 86.038-177.589 141.026l-0.498 0.553c-24.008 25.096-43.663 54.599-57.596 87.134l-0.727 1.909c-7.757 17.283-12.465 37.42-12.909 58.605l-0.003 0.164c-0.065 1.276-0.103 2.77-0.103 4.273 0 36.333 21.761 67.584 52.961 81.429l0.568 0.225c21.086 10.367 45.892 16.443 72.115 16.473h11.586v11.576c-0.404 5.726-0.634 12.408-0.634 19.144s0.23 13.418 0.683 20.039l-0.049-0.895c0.471 6.428 1.419 12.357 2.825 18.108l-0.154-0.744s0 0 0 0h12.911c9.157 2.134 20.532 4.016 32.105 5.233l1.286 0.11h205.69c89.043 0 178.087 0 264.459 0h44.522c1.74 0.355 3.74 0.558 5.788 0.558s4.048-0.203 5.981-0.591l-0.193 0.032c8.904 0 9.795-3.562 9.795-10.24v-3.117c0.531-7.060 0.834-15.293 0.834-23.597s-0.303-16.536-0.898-24.687l0.064 1.091v-11.13h19.144c24.501-3.023 46.652-10.912 66.201-22.682l-0.754 0.421c17.056-9.667 29.786-25.293 35.477-43.986l0.14-0.536c3.334-10.856 5.254-23.335 5.254-36.263 0-7.319-0.615-14.494-1.797-21.477l0.105 0.752z" />
<glyph unicode="&#xe90c;" d="M702.998 114.087c-29.557 3.217-55.933 14.784-77.283 32.262l0.26-0.206c-15.249 13.005-27.345 29.241-35.294 47.685l-0.324 0.844c-2.741 5.132-8.062 8.565-14.185 8.565-0.649 0-1.29-0.039-1.919-0.114l0.076 0.007h-121.99c-0.448 0.037-0.97 0.059-1.496 0.059-7.515 0-14.019-4.331-17.153-10.632l-0.050-0.111c-5.783-12.394-12.471-23.073-20.278-32.815l0.244 0.314c-14.915-17.32-34.391-30.322-56.569-37.169l-0.864-0.23c-12.021-3.562-25.377-6.233-37.843-8.904h-4.452c-13.555-1.889-24.361-11.797-27.556-24.706l-0.047-0.226c-0.188-1.537-0.295-3.316-0.295-5.12s0.107-3.583 0.316-5.331l-0.021 0.211v-58.323c0-10.685 0-21.816 0-32.946 0-21.816 16.918-26.268 28.939-27.603h397.134c11.349 0.146 20.89 7.719 23.995 18.074l0.046 0.18c1.643 4.912 2.616 10.569 2.671 16.446v0.027c0 25.377 0 50.755 0 76.132v7.123c0.445 25.377-13.357 32.501-36.063 36.508zM717.245 69.565c0-25.377 0-51.2 0-76.577 0.286-1.539 0.449-3.311 0.449-5.12s-0.164-3.581-0.477-5.3l0.027 0.18s0 0-4.452-2.671h-394.908c-9.795 0-9.795 2.671-9.795 7.123s0 21.37 0 32.056v58.769c-0.069 0.8-0.108 1.731-0.108 2.671s0.039 1.871 0.117 2.792l-0.008-0.12c0 3.117 0 5.788 10.685 8.014h4.452c12.911 2.671 26.713 5.788 40.070 9.795 27.073 8.399 49.9 23.888 67.051 44.305l0.177 0.217c8.58 10.302 16.022 22.021 21.854 34.636l0.407 0.982h119.763c9.534-20.966 22.931-38.64 39.424-52.813l0.2-0.168c24.403-19.987 54.862-33.451 88.246-37.323l0.798-0.075c17.809-2.226 17.809-4.452 17.363-14.692z" />
<glyph unicode="&#xe90d;" d="M717.245 77.134v-7.569c0-25.377 0-51.2 0-76.577 0.286-1.539 0.449-3.311 0.449-5.12s-0.164-3.581-0.477-5.3l0.027 0.18s0 0-4.452-2.671h-394.908c-9.795 0-9.795 2.671-9.795 7.123s0 21.37 0 32.056v58.769c-0.069 0.8-0.108 1.731-0.108 2.671s0.039 1.871 0.117 2.792l-0.008-0.12c0 3.117 0 5.788 10.685 8.014h4.452c12.911 2.671 26.713 5.788 40.070 9.795 27.073 8.399 49.9 23.888 67.051 44.305l0.177 0.217c8.58 10.302 16.022 22.021 21.854 34.636l0.407 0.982h119.763c9.534-20.966 22.931-38.64 39.424-52.813l0.2-0.168c24.403-19.987 54.862-33.451 88.246-37.323l0.798-0.075c16.473-1.336 16.473-3.562 16.028-13.802z" />
<glyph unicode="&#xe90e;" d="M930.504 773.899c-5.831 19.229-18.561 34.855-35.243 44.326l-0.375 0.196c-18.795 11.349-40.945 19.237-64.631 22.178l-0.816 0.083h-19.144v11.13c0.531 7.060 0.834 15.293 0.834 23.597s-0.303 16.536-0.898 24.687l0.064-1.091v4.897c0 6.678 0 8.459-9.795 10.24-1.807 0.383-3.883 0.603-6.010 0.603s-4.204-0.219-6.207-0.637l0.197 0.034h-44.522c-89.043 0-178.087 0-264.459 0h-204.355c-12.209-0.27-23.914-1.232-35.407-2.853l1.571 0.182h-12.911s0 0 0 0c-2.246-5.263-4.239-11.514-5.656-17.98l-0.132-0.719c-0.404-5.726-0.634-12.408-0.634-19.144s0.23-13.418 0.683-20.039l-0.049 0.895v-11.576h-8.014c-26.233-0.031-51.039-6.106-73.111-16.909l0.985 0.436c-31.768-14.071-53.529-45.321-53.529-81.654 0-1.503 0.037-2.997 0.111-4.481l-0.008 0.209c0.081-20.551 4.163-40.125 11.504-58.017l-0.374 1.030c14.661-34.445 34.316-63.947 58.427-89.152l-0.103 0.109c50.713-55.541 109.433-102.63 174.576-139.738l3.511-1.841c6.179-3.382 13.661-6.827 21.38-9.792l1.326-0.448 13.802-5.343h3.117l14.247-20.48c7.569-11.13 15.583-22.261 23.151-33.837 18.728-25.995 33.777-56.19 43.523-88.678l0.553-2.147c3.117-10.685 4.897-21.816 7.123-32.946v-5.788h105.962c1.393 16.371 4.708 31.496 9.744 45.81l-0.395-1.288c11.91 32.963 26.943 61.497 45.293 87.525l-0.771-1.153 28.049 41.405 7.123 10.685h2.671c13.154 6.021 23.813 11.667 34.133 17.82l-1.632-0.902c21.37 13.357 44.522 28.494 70.344 47.193 44.625 30.97 82.81 67.174 114.889 108.366l0.868 1.157c26.707 29.925 45.732 67.258 53.643 108.538l0.228 1.43c0.693 5.001 1.089 10.779 1.089 16.65 0 13.28-2.026 26.086-5.785 38.127l0.244-0.905zM292.508 530.81c-6.678 5.343-14.247 10.24-21.37 15.583s-20.48 12.911-28.494 20.48c-31.596 24.798-58.662 53.421-81.073 85.535l-0.847 1.282c-16.46 21.638-27.976 47.904-32.38 76.516l-0.121 0.952c-0.561 2.918-0.882 6.275-0.882 9.707 0 23.863 15.516 44.102 37.009 51.18l0.381 0.109c7.493 2.693 16.612 5.159 25.976 6.937l1.183 0.187 23.151 3.562h16.918v-10.24c7.123-39.624 14.247-74.797 21.37-106.852 12.115-54.010 30.522-101.724 54.844-145.712l-1.418 2.797 24.042-44.522zM879.75 678.177c-25.827-43.012-57.2-79.63-93.723-110.317l-0.663-0.542c-10.24-9.35-21.37-17.809-32.056-25.823l-44.522-32.056 21.37 41.85c28.205 52.373 49.867 113.143 61.738 177.346l0.592 3.858v9.795c2.671 16.918 5.788 33.837 8.459 50.755v10.685l14.247-2.226c16.481-1.802 31.55-5.569 45.734-11.101l-1.212 0.416c21.809-5.642 37.658-25.144 37.658-48.347 0-1.789-0.094-3.556-0.278-5.296l0.019 0.217c-1.178-21.94-7.474-42.18-17.706-59.856l0.343 0.642z" />
<glyph unicode="&#xe90f;" d="M862.831 790.817c-12.972 5.116-28.040 8.883-43.722 10.614l-0.8 0.072-14.247 2.226v-10.685c-2.671-16.918-5.788-33.837-8.459-50.755v-9.795c-12.006-67.986-33.23-128.797-62.638-184.627l1.644 3.424-21.37-41.85 44.522 32.056c10.685 8.014 21.816 16.473 32.056 25.823 37.186 31.229 68.559 67.847 93.299 108.913l1.088 1.946c8.157 16.774 12.925 36.49 12.925 57.32 0 0.666-0.005 1.331-0.015 1.995l0.001-0.1c0.226 1.784 0.355 3.849 0.355 5.944 0 22.099-14.375 40.84-34.285 47.382l-0.352 0.1zM860.605 688.417c-24.551-40.645-54.124-75.321-88.454-104.581l-0.59-0.491c18.904 41.839 34.33 90.641 43.886 141.515l0.636 4.071v9.35l6.678 40.515c11.953-1.559 22.775-4.368 33.015-8.341l-0.96 0.328c12.506-3.561 21.51-14.884 21.51-28.309 0-1.006-0.051-1.999-0.149-2.979l0.010 0.123c-1.051-19.031-6.707-36.541-15.863-51.701l0.281 0.501z" />
<glyph unicode="&#xe910;" d="M308.536 545.057c-22.904 41.191-41.311 88.904-52.731 139.271l-0.695 3.643c-7.123 32.056-14.247 67.228-21.37 106.852v10.24h-16.918l-23.151-3.562c-10.546-1.964-19.666-4.431-28.487-7.53l1.329 0.407c-21.874-7.186-37.39-27.425-37.39-51.288 0-3.432 0.321-6.788 0.934-10.042l-0.053 0.335c4.525-29.564 16.041-55.83 32.807-77.888l-0.306 0.42c23.146-34.287 50.239-63.644 81.146-88.443l0.774-0.6c8.014-6.233 18.254-13.357 28.494-20.48s14.692-10.24 21.37-15.583l40.070-29.384zM256.445 583.791c-30.219 23.515-56.105 50.674-77.563 81.173l-0.795 1.192c-14.324 18.821-24.521 41.553-28.808 66.31l-0.132 0.918c-0.547 2.216-0.861 4.76-0.861 7.378 0 14.683 9.872 27.060 23.341 30.857l0.226 0.054c6.599 2.333 14.674 4.491 22.957 6.062l1.085 0.171 18.254 4.007c6.678-35.617 12.911-67.673 19.59-97.057 9.185-41.85 21.752-78.576 37.899-113.301l-1.391 3.332z" />
<glyph unicode="&#xe911;" d="M875.743 737.391c-0.904-18.987-6.412-36.512-15.421-51.717l0.284 0.517c-24.551-40.645-54.124-75.321-88.454-104.581l-0.59-0.491c18.904 41.839 34.33 90.641 43.886 141.515l0.636 4.071v9.35l6.678 40.515c11.953-1.559 22.775-4.368 33.015-8.341l-0.96 0.328c12.284-3.705 21.077-14.918 21.077-28.186 0-1.049-0.055-2.086-0.162-3.107l0.011 0.127z" />
<glyph unicode="&#xe912;" d="M270.247 573.551l-13.802 10.24c-30.219 23.515-56.105 50.674-77.563 81.173l-0.795 1.192c-14.324 18.821-24.521 41.553-28.808 66.31l-0.132 0.918c-0.547 2.216-0.861 4.76-0.861 7.378 0 14.683 9.872 27.060 23.341 30.857l0.226 0.054c6.599 2.333 14.674 4.491 22.957 6.062l1.085 0.171 18.254 4.007c6.678-35.617 12.911-67.673 19.59-97.057 9.074-42.31 21.653-79.502 37.896-114.654l-1.388 3.349z" />
<glyph unicode="&#xe913;" d="M934.957 363.409c0 125.106-19.59 146.031-145.141 152.71-6.678 0-19.144-3.562-18.254 6.678 0 24.932-11.576 51.2 17.809 73.461 33.73 23.054 55.58 61.335 55.58 104.719 0 50.583-29.702 94.228-72.617 114.446l-0.771 0.327c-24.806 15.478-54.928 24.655-87.194 24.655-7.875 0-15.621-0.547-23.205-1.604l0.876 0.1c-2.659-0.773-5.714-1.217-8.873-1.217-13.143 0-24.488 7.696-29.776 18.826l-0.085 0.2c-40.922 56.145-106.46 92.217-180.423 92.217-71.224 0-134.636-33.449-175.383-85.496l-0.368-0.488c-9.085-13.66-24.1-22.754-41.284-23.592l-0.121-0.005c-59.672-1.141-109.951-40.103-127.941-93.861l-0.282-0.971c-4.474-12.294-7.061-26.486-7.061-41.283 0-44.708 23.62-83.9 59.061-105.777l0.535-0.307c13.802-10.24 11.576-21.816 11.576-34.282 0-84.591 0-169.183 0-253.774s0-169.628 0-254.219c-0.016-0.673-0.025-1.465-0.025-2.26 0-56.361 44.947-102.224 100.952-103.699l0.137-0.003c133.565-2.226 267.13-2.671 400.696 0 0.044 0 0.096 0 0.149 0 53.863 0 98.219 40.701 103.99 93.026l0.042 0.47c1.774 12.998 2.786 28.019 2.786 43.277 0 3.099-0.042 6.188-0.125 9.268l0.010-0.454c0 58.323 0 58.323 58.769 59.214 1.873-0.125 4.059-0.197 6.262-0.197 55.079 0 99.729 44.65 99.729 99.729 0 0.852-0.011 1.701-0.032 2.548l0.002-0.125c0 36.508 0 71.68 0 107.743zM727.485 62.442c0.267-2.258 0.419-4.873 0.419-7.523 0-37.375-30.298-67.673-67.673-67.673-3.764 0-7.455 0.307-11.052 0.898l0.392-0.053h-367.304c-2.928-0.426-6.308-0.67-9.745-0.67-39.342 0-71.235 31.893-71.235 71.235 0 3.851 0.306 7.63 0.894 11.316l-0.053-0.406c0 78.803 0 158.052 0 237.301v0c0 81.475 0 162.504 0 243.979 0 17.809 0 27.603 22.706 20.035 1.929-0.633 4.15-0.998 6.456-0.998s4.526 0.365 6.607 1.041l-0.151-0.042c50.755 20.925 93.941 0 138.908-20.035 17.017-7.49 36.856-11.849 57.713-11.849 11.101 0 21.914 1.235 32.309 3.575l-0.979-0.185c20.035 4.007 23.597-2.671 24.042-20.925-0.274-2.694-0.431-5.821-0.431-8.985 0-38.863 23.599-72.214 57.249-86.505l0.615-0.232c8.033-2.757 17.289-4.348 26.916-4.348 45.137 0 82.103 34.984 85.263 79.316l0.016 0.274c0.11 1.929 0.173 4.185 0.173 6.456s-0.063 4.527-0.187 6.767l0.014-0.311c0 44.522 0 44.522 44.522 47.638 22.706 0 24.042-6.678 24.042-24.487 0-118.428 0-236.41 0-356.174-1.336-38.289-0.445-78.358-1.781-118.428zM763.103 626.532c-22.687-16.78-51.216-26.858-82.098-26.858-12.599 0-24.807 1.677-36.412 4.821l0.973-0.224c-23.151 5.788-25.823 0-24.932-20.925 0.532-9.708 0.835-21.069 0.835-32.501s-0.303-22.794-0.901-34.077l0.067 1.576c0-31.61-20.035-55.652-44.522-55.652s-44.522 20.925-44.522 53.426c0 10.685 0 21.816 0 32.501-0.107 1.928-0.167 4.185-0.167 6.456s0.061 4.528 0.181 6.768l-0.013-0.313c3.117 27.158 0 38.289-33.837 27.158-17.074-6.392-36.805-10.091-57.4-10.091-42.567 0-81.443 15.804-111.080 41.864l0.188-0.162c-13.357 10.685-22.261 14.692-38.734 4.452-15.121-8.81-33.283-14.011-52.659-14.011-13.058 0-25.565 2.362-37.116 6.682l0.731-0.24c-40.105 9.223-69.56 44.615-69.56 86.886 0 5.642 0.525 11.161 1.528 16.512l-0.086-0.552c9.104 45.176 48.473 78.719 95.676 78.719 4.411 0 8.754-0.293 13.010-0.86l-0.498 0.054c26.713-4.007 36.508 4.452 49.419 25.823 29.329 50.574 83.213 84.044 144.914 84.044 7.141 0 14.178-0.448 21.084-1.319l-0.822 0.085c62.854-1.52 116.721-38.501 142.492-91.638l0.423-0.967c10.685-21.816 19.144-25.823 44.522-19.59 11.201 3.262 24.068 5.139 37.373 5.139 31.417 0 60.39-10.463 83.624-28.095l-0.344 0.25c23.4-15.602 38.608-41.887 38.608-71.724 0-30.949-16.362-58.077-40.908-73.204l-0.371-0.213zM893.997 261.009c0.192-1.814 0.301-3.919 0.301-6.049 0-33.686-27.308-60.995-60.995-60.995-1.987 0-3.952 0.095-5.89 0.281l0.247-0.019c-12.021 0-24.042 0-36.063 0s-22.261 0-21.816 19.144 9.35 16.918 20.925 16.028 11.13 0 16.473 0c30.72 0 44.522 14.692 44.522 44.522 0 40.070 0 80.584 0 120.654s-12.021 44.522-47.638 44.522c-11.13 0-30.72-11.576-32.501 13.802 0 12.911 0 24.042 18.254 22.261s25.823 0 39.179 0c1.271 0.092 2.754 0.145 4.249 0.145 34.424 0 62.33-27.906 62.33-62.33 0-1.932-0.088-3.843-0.26-5.73l0.018 0.243c0-24.932 0-49.864 0-74.797v0c-2.226-24.042-1.781-47.638-2.671-71.68zM810.296 331.798c0-15.137 0-30.275 0-44.522s-9.795-16.918-22.261-17.809-18.254 5.788-17.809 19.144c0 31.165 0 62.33 0 93.496 0 15.137 5.343 18.254 18.699 17.809s22.706 0 21.37-18.699-1.336-33.391-1.336-49.419z" />
<glyph unicode="&#xe914;" d="M726.595 182.65c0-40.070 0-80.139 0-120.209 0.267-2.258 0.419-4.873 0.419-7.523 0-37.375-30.298-67.673-67.673-67.673-3.764 0-7.455 0.307-11.052 0.898l0.392-0.053h-366.414c-2.928-0.426-6.308-0.67-9.745-0.67-39.342 0-71.235 31.893-71.235 71.235 0 3.851 0.306 7.63 0.894 11.316l-0.053-0.406c0 78.803 0 158.052 0 237.301v0c0 81.475 0 162.504 0 243.979 0 17.809 0 27.603 22.706 20.035 1.929-0.633 4.15-0.998 6.456-0.998s4.526 0.365 6.607 1.041l-0.151-0.042c50.755 20.925 93.941 0 138.908-20.035 17.017-7.49 36.856-11.849 57.713-11.849 11.101 0 21.914 1.235 32.309 3.575l-0.979-0.185c20.035 4.007 23.597-2.671 24.042-20.925-0.274-2.694-0.431-5.821-0.431-8.985 0-38.863 23.599-72.214 57.249-86.505l0.615-0.232c8.033-2.757 17.289-4.348 26.916-4.348 45.137 0 82.103 34.984 85.263 79.316l0.016 0.274c0.11 1.929 0.173 4.185 0.173 6.456s-0.063 4.527-0.187 6.767l0.014-0.311c0 44.522 0 44.522 44.522 47.638 22.706 0 24.042-6.678 24.042-24.487-1.781-117.983-1.336-235.965-1.336-354.393z" />
<glyph unicode="&#xe915;" d="M761.767 626.532c-22.687-16.78-51.216-26.858-82.098-26.858-12.599 0-24.807 1.677-36.412 4.821l0.973-0.224c-23.151 5.788-25.823 0-24.932-20.925 0.532-9.708 0.835-21.069 0.835-32.501s-0.303-22.794-0.901-34.077l0.067 1.576c0-31.61-20.035-55.652-44.522-55.652s-44.522 20.925-44.522 53.426c0 10.685 0 21.816 0 32.501-0.107 1.928-0.167 4.185-0.167 6.456s0.061 4.528 0.181 6.768l-0.013-0.313c3.117 27.158 0 38.289-33.837 27.158-17.074-6.392-36.805-10.091-57.4-10.091-42.567 0-81.443 15.804-111.080 41.864l0.188-0.162c-13.357 10.685-22.261 14.692-38.734 4.452-15.121-8.81-33.283-14.011-52.659-14.011-13.058 0-25.565 2.362-37.116 6.682l0.731-0.24c-39.465 9.701-68.279 44.78-68.279 86.589 0 5.748 0.545 11.369 1.585 16.813l-0.089-0.557c9.104 45.176 48.473 78.719 95.676 78.719 4.411 0 8.754-0.293 13.010-0.86l-0.498 0.054c26.713-4.007 36.508 4.452 49.419 25.823 29.329 50.574 83.213 84.044 144.914 84.044 7.141 0 14.178-0.448 21.084-1.319l-0.822 0.085c62.854-1.52 116.721-38.501 142.492-91.638l0.423-0.967c10.685-21.816 19.144-25.823 44.522-19.59 11.201 3.262 24.068 5.139 37.373 5.139 31.417 0 60.39-10.463 83.624-28.095l-0.344 0.25c23.4-15.602 38.608-41.887 38.608-71.724 0-30.949-16.362-58.077-40.908-73.204l-0.371-0.213z" />
<glyph unicode="&#xe916;" d="M893.106 332.689c0-24.042 0-47.638 0-71.68 0.192-1.814 0.301-3.919 0.301-6.049 0-33.686-27.308-60.995-60.995-60.995-1.987 0-3.952 0.095-5.89 0.281l0.247-0.019c-12.021 0-24.042 0-36.063 0s-22.261 0-21.816 19.144 9.35 16.918 20.925 16.028 11.13 0 16.473 0c30.72 0 44.522 14.692 44.522 44.522 0 40.070 0 80.584 0 120.654s-12.021 44.522-47.638 44.522c-11.13 0-30.72-11.576-32.501 13.802 0 12.911 0 24.042 18.254 22.261s25.823 0 39.179 0c1.271 0.092 2.754 0.145 4.249 0.145 34.424 0 62.33-27.906 62.33-62.33 0-1.932-0.088-3.843-0.26-5.73l0.018 0.243c0-24.932 0-49.864 0-74.797z" />
<glyph unicode="&#xe917;" d="M808.96 331.798c0-15.137 0-30.275 0-44.522s-9.795-16.918-22.261-17.809-18.254 5.788-17.809 19.144c0 31.165 0 62.33 0 93.496 0 15.137 5.343 18.254 18.699 17.809s22.706 0 21.37-18.699 0-33.391 0-49.419z" />
<glyph unicode="&#xe918;" d="M696.765 555.297c-5.343 0-6.678 0-6.233 12.911 0 46.748 0 93.941 0 140.689 0.020 0.971 0.032 2.115 0.032 3.261 0 11.448-1.146 22.628-3.33 33.432l0.182-1.076c-2.349 20.522-15.928 37.373-34.357 44.398l-0.37 0.124c-3.597 1.046-7.729 1.648-12.002 1.648-12.82 0-24.374-5.418-32.497-14.090l-0.023-0.025-4.452-4.007-13.802-12.466c-114.421-103.29-227.061-150.038-345.489-143.805-41.405 0-82.81 0-123.325 0h-27.603c-39.698-1.72-71.23-34.32-71.23-74.286 0-2.846 0.16-5.655 0.471-8.418l-0.031 0.339c0-28.939 0-59.659 0-89.043-0.062-1.139-0.097-2.472-0.097-3.814 0-39.149 30.077-71.274 68.385-74.526l0.276-0.019h36.953c0.358-3.404 0.562-7.355 0.562-11.353s-0.204-7.949-0.603-11.842l0.041 0.489v-14.692c0-25.377 0-52.090 0-79.694 3.503-24.31 8.477-45.809 15.047-66.599l-0.8 2.933c4.007-14.247 8.014-28.939 11.13-44.522 2.75-35.264 29.729-63.463 64.176-68.077l0.381-0.042c8.152-1.67 17.532-2.641 27.135-2.671h0.024c0.647-0.012 1.411-0.018 2.176-0.018 15.169 0 29.728 2.616 43.249 7.422l-0.903-0.28c15.804 5.138 29.184 14.064 39.545 25.731l0.080 0.091c5.501 5.276 8.919 12.687 8.919 20.897 0 0.323-0.005 0.645-0.016 0.966l0.001-0.047c-1.019 7.469-5.158 13.807-11.039 17.751l-0.091 0.058c-11.781 9.888-21.931 21.17-30.356 33.707l-0.364 0.575c-8.399 10.365-13.484 23.714-13.484 38.251 0 8.364 1.683 16.334 4.73 23.591l-0.15-0.402c1.51 3.392 2.389 7.35 2.389 11.513 0 6.38-2.065 12.278-5.562 17.062l0.057-0.082c-5.314 9.29-8.447 20.418-8.447 32.278s3.133 22.989 8.618 32.602l-0.17-0.324c16.028 28.939 33.837 29.384 44.522 27.158 46.519-8.716 88.003-23.395 126.212-43.464l-2.441 1.168c60.97-31.722 113.41-69.528 159.639-113.769l-0.251 0.239c6.295-6.912 15.331-11.233 25.377-11.233s19.083 4.321 25.353 11.206l0.025 0.027c17.049 14.228 27.818 35.485 27.818 59.257 0 2.022-0.078 4.025-0.231 6.008l0.016-0.263v53.426c0 31.61 0 63.221 0 94.386 0 8.014 0 8.459 5.343 9.35 26.094 8.844 44.54 33.116 44.54 61.697 0 0.536-0.006 1.070-0.019 1.603l0.002-0.079c0.139 1.593 0.218 3.447 0.218 5.319 0 28.324-18.116 52.418-43.394 61.324l-0.455 0.14zM690.532 443.548c-10.961-2.387-19.049-12.008-19.049-23.518 0-1.444 0.127-2.857 0.371-4.231l-0.021 0.145v-151.374c0.152-1.593 0.239-3.444 0.239-5.316 0-17.969-8.004-34.068-20.641-44.928l-0.079-0.066c-10.685-8.459-16.918-8.014-26.268 0-46.657 47.473-99.985 88.173-158.516 120.632l-3.543 1.803c-37.296 19.749-80.546 35.184-126.144 44.041l-2.969 0.48c-3.403 0.705-7.313 1.109-11.318 1.109-25.764 0-47.627-16.706-55.346-39.876l-0.119-0.412c-6.696-11.8-10.642-25.919-10.642-40.96s3.946-29.16 10.86-41.379l-0.218 0.419c3.117-5.788 4.007-7.569 0-12.911-3.765-8.854-5.954-19.152-5.954-29.961 0-18.541 6.439-35.578 17.204-48.996l-0.119 0.154c9.613-14.608 20.964-27.092 33.974-37.603l0.307-0.24c1.902-1.373 3.414-3.171 4.416-5.26l0.036-0.083s0-3.117-4.452-8.014c-8.306-9.379-18.992-16.471-31.116-20.343l-0.495-0.137c-11.909-4.266-25.649-6.732-39.964-6.732-6.48 0-12.841 0.505-19.047 1.478l0.688-0.089c-28.331 1.724-50.974 23.906-53.411 51.876l-0.015 0.214c-3.117 15.583-7.569 30.72-11.576 44.522-5.298 16.609-9.956 36.749-13.075 57.394l-0.281 2.265c0 26.268 0 53.426 0 79.249v12.466c3.117 20.035 4.452 28.939 0 36.063s-16.473 5.788-32.946 5.788h-19.59c-28.565 2.85-50.687 26.759-50.687 55.836 0 2.289 0.137 4.545 0.403 6.762l-0.026-0.267c0 30.72 0 61.44 0 89.043 0 38.289 20.925 63.666 52.090 64.111h27.603c40.515 0 81.92 0 122.435 0 123.325-6.233 240.417 41.85 358.4 146.922 4.897 4.007 9.35 8.459 13.802 12.911l4.452 4.007c4.984 5.443 12.121 8.843 20.053 8.843 2.366 0 4.661-0.302 6.849-0.871l-0.189 0.042c11.844-5.294 20.352-16.165 22.237-29.181l0.024-0.204c1.716-8.517 2.698-18.307 2.698-28.326 0-0.998-0.010-1.994-0.029-2.988l0.002 0.149v-139.798c-0.329-1.559-0.517-3.35-0.517-5.185 0-12.321 8.482-22.66 19.926-25.497l0.181-0.038c17.756-6.123 30.284-22.691 30.284-42.184 0-2.238-0.165-4.438-0.484-6.588l0.030 0.243c0.067-0.912 0.105-1.977 0.105-3.050 0-19.693-12.786-36.4-30.51-42.272l-0.314-0.090z" />
<glyph unicode="&#xe919;" d="M721.252 488.96c0.034-0.65 0.053-1.411 0.053-2.176 0-19.674-12.762-36.368-30.459-42.255l-0.314-0.091c-10.961-2.387-19.049-12.008-19.049-23.518 0-1.444 0.127-2.857 0.371-4.231l-0.021 0.145v-151.374c0.152-1.593 0.239-3.444 0.239-5.316 0-17.969-8.004-34.068-20.641-44.928l-0.079-0.066c-10.685-8.459-16.918-8.014-26.268 0-46.67 47.128-99.997 87.54-158.482 119.739l-3.577 1.805c-37.296 19.749-80.546 35.184-126.144 44.041l-2.969 0.48c-3.403 0.705-7.313 1.109-11.318 1.109-25.764 0-47.627-16.706-55.346-39.876l-0.119-0.412c-6.696-11.8-10.642-25.919-10.642-40.96s3.946-29.16 10.86-41.379l-0.218 0.419c3.117-5.788 4.007-7.569 0-12.911-3.765-8.854-5.954-19.152-5.954-29.961 0-18.541 6.439-35.578 17.204-48.996l-0.119 0.154c9.613-14.608 20.964-27.092 33.974-37.603l0.307-0.24c1.902-1.373 3.414-3.171 4.416-5.26l0.036-0.083s0-3.117-4.452-8.014c-8.306-9.379-18.992-16.471-31.116-20.343l-0.495-0.137c-11.909-4.266-25.649-6.732-39.964-6.732-6.48 0-12.841 0.505-19.047 1.478l0.688-0.089c-28.331 1.724-50.974 23.906-53.411 51.876l-0.015 0.214c-3.117 15.583-7.569 30.72-11.576 44.522-5.298 16.609-9.956 36.749-13.075 57.394l-0.281 2.265c0 26.268 0 53.426 0 79.249v12.466c3.117 20.035 4.452 28.939 0 36.063s-16.473 5.788-32.946 5.788h-19.59c-28.565 2.85-50.687 26.759-50.687 55.836 0 2.289 0.137 4.545 0.403 6.762l-0.026-0.267c0 30.72 0 61.44 0 89.043 0 38.289 20.925 63.666 52.090 64.111h27.603c40.515 0 81.92 0 122.435 0 123.325-6.233 240.417 41.85 358.4 146.922 4.897 4.007 9.35 8.459 13.802 12.911l4.452 4.007c4.984 5.443 12.121 8.843 20.053 8.843 2.366 0 4.661-0.302 6.849-0.871l-0.189 0.042c11.844-5.294 20.352-16.165 22.237-29.181l0.024-0.204c1.716-8.517 2.698-18.307 2.698-28.326 0-0.998-0.010-1.994-0.029-2.988l0.002 0.149v-139.798c-0.329-1.559-0.517-3.35-0.517-5.185 0-12.321 8.482-22.66 19.926-25.497l0.181-0.038c17.756-6.123 30.284-22.691 30.284-42.184 0-2.238-0.165-4.438-0.484-6.588l0.030 0.243z" />
<glyph unicode="&#xe91a;" d="M750.191 609.614c-2.93 0.208-6.348 0.326-9.795 0.326s-6.865-0.118-10.252-0.351l0.458 0.025c58.654-7.923 103.394-57.667 103.394-117.861 0-55.572-38.134-102.238-89.662-115.257l-0.821-0.176c61.665 3.425 110.371 54.263 110.371 116.478 0 59.858-45.087 109.186-103.153 115.875l-0.54 0.051zM849.475 480.056c-5.548-44.126-35.529-80.061-75.775-94.142l-0.802-0.244c37.461 21.191 62.334 60.764 62.334 106.147 0 50.087-30.297 93.099-73.565 111.707l-0.79 0.302c51.754-11.684 89.826-57.269 89.826-111.746 0-4.708-0.284-9.35-0.837-13.909l0.054 0.549z" />
<glyph unicode="&#xe91b;" d="M830.33 567.318c-19.187 24.405-47.445 40.93-79.612 44.475l-0.527 0.047c-2.997 0.222-6.492 0.348-10.017 0.348s-7.020-0.126-10.482-0.375l0.465 0.027v-5.343c54.367-10.413 94.893-57.59 94.893-114.231 0-51.964-34.109-95.961-81.159-110.824l-0.823-0.224v-5.343c57.753 3.629 104.105 47.992 110.805 104.51l0.054 0.561c0.588 4.406 0.923 9.5 0.923 14.672 0 27.131-9.227 52.107-24.715 71.96l0.196-0.261zM849.475 478.275c-5.548-44.126-35.529-80.061-75.775-94.142l-0.802-0.244c38.497 20.909 64.193 61.035 64.193 107.163 0 50.794-31.158 94.311-75.404 112.48l-0.81 0.294c51.754-11.684 89.826-57.269 89.826-111.746 0-4.708-0.284-9.35-0.837-13.909l0.054 0.549z" />
<glyph unicode="&#xe91c;" d="M849.475 480.056c-5.548-44.126-35.529-80.061-75.775-94.142l-0.802-0.244c37.461 21.191 62.334 60.764 62.334 106.147 0 50.087-30.297 93.099-73.565 111.707l-0.79 0.302c51.754-11.684 89.826-57.269 89.826-111.746 0-4.708-0.284-9.35-0.837-13.909l0.054 0.549z" />
<glyph unicode="&#xe91d;" d="M848.139 666.157c-4.337 0.425-9.375 0.668-14.47 0.668s-10.133-0.242-15.103-0.716l0.634 0.049c86.132-11.614 151.839-84.656 151.839-173.045 0-81.374-55.692-149.741-131.040-169.064l-1.21-0.263c90.401 5.278 161.714 79.878 161.714 171.134 0 87.957-66.249 160.44-151.571 170.273l-0.794 0.074zM995.061 476.049c-8.489-70.525-59.414-127.152-126.167-144.001l-1.165-0.249c62.109 28.715 104.427 90.485 104.427 162.139 0 78.381-50.636 144.935-120.981 168.734l-1.255 0.369c83.025-11.229 146.35-81.647 146.35-166.856 0-7.097-0.439-14.091-1.292-20.956l0.083 0.821z" />
<glyph unicode="&#xe91e;" d="M964.786 603.826c-27.819 35.571-68.738 59.787-115.383 65.367l-0.819 0.080c-4.396 0.323-9.522 0.507-14.692 0.507s-10.297-0.184-15.375-0.546l0.682 0.039v-5.788c84.643-11.6 149.153-83.441 149.153-170.348 0-80.050-54.732-147.317-128.816-166.421l-1.192-0.261v-5.343c92.019 5.119 164.699 80.985 164.699 173.827 0 41.361-14.425 79.352-38.518 109.219l0.26-0.333zM995.061 476.494c-8.489-70.525-59.414-127.152-126.167-144.001l-1.165-0.249c62.109 28.715 104.427 90.485 104.427 162.139 0 78.381-50.636 144.935-120.981 168.734l-1.255 0.369c83.025-11.229 146.35-81.647 146.35-166.856 0-7.097-0.439-14.091-1.292-20.956l0.083 0.821z" />
<glyph unicode="&#xe91f;" d="M995.061 476.049c-8.489-70.525-59.414-127.152-126.167-144.001l-1.165-0.249c62.109 28.715 104.427 90.485 104.427 162.139 0 78.381-50.636 144.935-120.981 168.734l-1.255 0.369c83.025-11.229 146.35-81.647 146.35-166.856 0-7.097-0.439-14.091-1.292-20.956l0.083 0.821z" />
<glyph unicode="&#xe920;" d="M22.261 937.739v-979.478h979.478v979.478zM975.026-15.471h-926.052v926.497h926.052z" />
<glyph unicode="&#xe921;" d="M48.974 911.026v-926.497h926.052v926.497zM133.565 20.591h-66.337v66.337h66.337zM150.483 813.969h-66.337v65.447h66.337zM551.179 101.621c-10.426-10.426-24.828-16.874-40.737-16.874-31.818 0-57.611 25.793-57.611 57.611 0 15.909 6.448 30.312 16.874 40.737v0c10.426 10.426 24.828 16.874 40.737 16.874 31.818 0 57.611-25.793 57.611-57.611 0-15.909-6.448-30.312-16.874-40.737v0zM690.532 485.843c-10.751-23.23-24.646-43.107-41.429-60.129l0.024 0.024c-18.055-19.023-37.242-36.517-57.625-52.558l-1.144-0.868c-14.002-11.27-24.435-26.456-29.667-43.891l-0.162-0.63c-4.659-13.156-7.696-28.359-8.445-44.16l-0.014-0.361c0.001-0.097 0.001-0.213 0.001-0.328 0-11.549-4.397-22.070-11.609-29.982l0.032 0.035c-7.283-7.452-17.435-12.074-28.667-12.074-0.722 0-1.44 0.019-2.153 0.057l0.1-0.004c-0.445-0.017-0.968-0.027-1.493-0.027-22.622 0-40.96 18.338-40.96 40.96 0 1.263 0.057 2.514 0.169 3.748l-0.012-0.159c0.618 25.955 6.625 50.358 16.938 72.339l-0.465-1.104c12.567 24.872 29.491 45.781 49.968 62.505l0.342 0.27c15.583 13.357 29.83 26.268 44.522 39.179 12.575 12.677 23.143 27.37 31.173 43.547l0.438 0.975c8.171 17.473 12.939 37.939 12.939 59.518 0 0.989-0.010 1.975-0.030 2.959l0.002-0.147c0.017 0.682 0.026 1.485 0.026 2.29 0 55.325-44.849 100.174-100.174 100.174-1.262 0-2.518-0.023-3.769-0.070l0.181 0.005c-1.359 0.048-2.956 0.076-4.559 0.076-22.89 0-44.465-5.627-63.419-15.572l0.75 0.359c-17.248-9.458-30.88-23.663-39.38-40.859l-0.244-0.547c-7.641-17.023-12.092-36.898-12.092-57.812 0-1.589 0.026-3.172 0.077-4.748l-0.006 0.23c0.014-0.404 0.022-0.88 0.022-1.357 0-11.225-4.419-21.417-11.612-28.933l0.015 0.015c-7.485-7.446-17.805-12.049-29.199-12.049-0.535 0-1.067 0.010-1.597 0.030l0.076-0.002c-1.075-0.1-2.325-0.158-3.589-0.158-22.622 0-40.96 18.338-40.96 40.96 0 0.525 0.010 1.048 0.029 1.568l-0.002-0.075c-0.029 1.274-0.046 2.774-0.046 4.279 0 35.873 9.428 69.544 25.942 98.67l-0.519-0.994c16.935 29.55 41.167 53.211 70.294 68.988l0.941 0.466c29.961 16.015 65.534 25.422 103.305 25.422 1.56 0 3.117-0.016 4.67-0.048l-0.232 0.004c1.029 0.019 2.243 0.030 3.459 0.030 33.737 0 65.508-8.413 93.331-23.257l-1.069 0.52c27.606-15.101 50.049-36.545 65.904-62.459l0.434-0.762c15.419-25.819 24.536-56.948 24.536-90.206 0-1.47-0.018-2.936-0.053-4.397l0.004 0.217c0.036-1.426 0.057-3.106 0.057-4.79 0-27.317-5.419-53.368-15.24-77.137l0.491 1.342zM849.030 880.306h66.783v-66.337h-66.783zM938.073 21.927h-65.447v65.002h66.337z" />
<glyph unicode="&#xe922;" d="M704.779 565.537c0.036-1.426 0.057-3.106 0.057-4.79 0-27.317-5.419-53.368-15.24-77.137l0.491 1.342c-10.703-22.869-24.439-42.443-40.986-59.24l0.026 0.026c-18.055-19.023-37.242-36.517-57.625-52.558l-1.144-0.868c-14.002-11.27-24.435-26.456-29.667-43.891l-0.162-0.63c-4.659-13.156-7.696-28.359-8.445-44.16l-0.014-0.361c0.001-0.097 0.001-0.213 0.001-0.328 0-11.549-4.397-22.070-11.609-29.982l0.032 0.035c-7.283-7.452-17.435-12.074-28.667-12.074-0.722 0-1.44 0.019-2.153 0.057l0.1-0.004c-0.445-0.017-0.968-0.027-1.493-0.027-22.622 0-40.96 18.338-40.96 40.96 0 1.263 0.057 2.514 0.169 3.748l-0.012-0.159c0.618 25.955 6.625 50.358 16.938 72.339l-0.465-1.104c12.567 24.872 29.491 45.781 49.968 62.505l0.342 0.27c15.583 13.357 29.83 26.268 44.522 39.179 12.575 12.677 23.143 27.37 31.173 43.547l0.438 0.975c8.171 17.473 12.939 37.939 12.939 59.518 0 0.989-0.010 1.975-0.030 2.959l0.002-0.147c0.017 0.682 0.026 1.485 0.026 2.29 0 55.325-44.849 100.174-100.174 100.174-1.262 0-2.518-0.023-3.769-0.070l0.181 0.005c-1.359 0.048-2.956 0.076-4.559 0.076-22.89 0-44.465-5.627-63.419-15.572l0.75 0.359c-17.248-9.458-30.88-23.663-39.38-40.859l-0.244-0.547c-7.641-17.023-12.092-36.898-12.092-57.812 0-1.589 0.026-3.172 0.077-4.748l-0.006 0.23c0.014-0.404 0.022-0.88 0.022-1.357 0-11.225-4.419-21.417-11.612-28.933l0.015 0.015c-7.485-7.446-17.805-12.049-29.199-12.049-0.535 0-1.067 0.010-1.597 0.030l0.076-0.002c-1.075-0.1-2.325-0.158-3.589-0.158-22.622 0-40.96 18.338-40.96 40.96 0 0.525 0.010 1.048 0.029 1.568l-0.002-0.075c-0.029 1.274-0.046 2.774-0.046 4.279 0 35.873 9.428 69.544 25.942 98.67l-0.519-0.994c16.935 29.55 41.167 53.211 70.294 68.988l0.941 0.466c29.961 16.015 65.534 25.422 103.305 25.422 1.56 0 3.117-0.016 4.67-0.048l-0.232 0.004c1.029 0.019 2.243 0.030 3.459 0.030 33.737 0 65.508-8.413 93.331-23.257l-1.069 0.52c27.606-15.101 50.049-36.545 65.904-62.459l0.434-0.762c15.419-25.819 24.536-56.948 24.536-90.206 0-1.47-0.018-2.936-0.053-4.397l0.004 0.217z" />
<glyph unicode="&#xe923;" d="M568.097 141.245c0.001-0.095 0.001-0.206 0.001-0.318 0-15.83-6.663-30.104-17.337-40.171l-0.027-0.026c-10.426-10.426-24.828-16.874-40.737-16.874-31.818 0-57.611 25.793-57.611 57.611 0 15.909 6.448 30.312 16.874 40.737v0c10.478 10.133 24.771 16.377 40.523 16.377 31.864 0 57.76-25.553 58.314-57.285l0.001-0.052z" />
<glyph unicode="&#xe924;" d="M872.626 86.929h66.337v-65.892h-66.337v65.892z" />
<glyph unicode="&#xe925;" d="M67.228 86.929h66.337v-65.892h-66.337v65.892z" />
<glyph unicode="&#xe926;" d="M84.146 879.416h66.337v-65.447h-66.337v65.447z" />
<glyph unicode="&#xe927;" d="M848.584 879.416h66.783v-65.447h-66.783v65.447z" />
<glyph unicode="&#xe928;" glyph-name="menuBLogo" d="M518.827-46.933c-1.027-0.017-2.238-0.027-3.452-0.027-40.96 0-79.323 11.115-112.239 30.492l1.037-0.565c-33.658 19.876-60.84 47.45-79.684 80.406l-0.564 1.070c-19.11 33.343-30.379 73.296-30.379 115.881 0 0.133 0 0.266 0 0.398v-0.021 373.419c-0.027 0.554-0.043 1.204-0.043 1.857 0 11.163 4.545 21.264 11.885 28.554l0.002 0.002c7.59 7.977 18.285 12.938 30.139 12.938 22.961 0 41.574-18.613 41.574-41.574 0-0.589-0.012-1.174-0.036-1.757l0.003 0.083v-221.116c18.807 22.593 41.838 40.966 67.973 54.062l1.216 0.552c26.025 12.666 56.617 20.071 88.938 20.071 39.614 0 76.63-11.123 108.095-30.416l-0.903 0.515c31.668-20.176 57.077-47.553 74.365-79.922l0.558-1.144q27.307-51.2 27.307-115.883c0.017-1.029 0.026-2.244 0.026-3.461 0-41.495-11.107-80.395-30.511-113.89l0.584 1.093c-19.646-33.969-46.934-61.52-79.631-80.913l-1.026-0.563q-50.688-30.14-115.234-30.14zM518.827 26.761c0.675-0.012 1.471-0.018 2.269-0.018 26.69 0 51.636 7.472 72.858 20.438l-0.614-0.349c21.862 13.681 39.422 32.356 51.4 54.493l0.38 0.768c12.129 22.131 19.263 48.489 19.263 76.514 0 0.701-0.004 1.4-0.013 2.099l0.001-0.106c0.015 0.808 0.023 1.761 0.023 2.715 0 27.782-7.141 53.897-19.688 76.608l0.414-0.817c-12.559 22.621-30.158 41.061-51.361 54.252l-0.624 0.362c-21.297 12.615-46.941 20.070-74.325 20.070s-53.028-7.455-75.012-20.445l0.687 0.376c-21.951-13.398-39.59-31.878-51.612-53.868l-0.373-0.745c-11.882-21.901-18.867-47.953-18.867-75.636 0-1.009 0.009-2.017 0.028-3.022l-0.002 0.151c-0.009-0.638-0.014-1.392-0.014-2.147 0-27.926 6.978-54.222 19.286-77.24l-0.43 0.881c23.903-45.127 70.567-75.347 124.29-75.347 0.705 0 1.408 0.005 2.11 0.016l-0.106-0.001zM389.291 887.945c0-30.369-24.619-54.989-54.989-54.989s-54.989 24.619-54.989 54.989c0 30.369 24.619 54.989 54.989 54.989s54.989-24.619 54.989-54.989zM373.18 767.727c0-21.472-17.406-38.878-38.878-38.878s-38.878 17.406-38.878 38.878c0 21.472 17.406 38.878 38.878 38.878s38.878-17.406 38.878-38.878zM361.062 664.303c0-14.779-11.981-26.761-26.761-26.761s-26.761 11.981-26.761 26.761c0 14.779 11.981 26.761 26.761 26.761s26.761-11.981 26.761-26.761z" />
</font>
</defs>
</svg>
