<svg id="Layer_1" data-name="Layer 1" xmlns="http://www.w3.org/2000/svg" viewBox="0 0 1080 330"><defs><style>.cls-1{fill:#2b95ad;}.cls-2{fill:#fff;}</style></defs><title>108x Menu Logo</title><path class="cls-1" d="M154.4,327.24q-20.18,0-36.21-9.44a69.14,69.14,0,0,1-25.34-25.73q-9.3-16.29-9.57-36.72V137.43A12.71,12.71,0,0,1,87,127.86a13.06,13.06,0,0,1,9.44-3.62,12.44,12.44,0,0,1,13.19,13.19v69.82a66.57,66.57,0,0,1,21.85-17.19,65.4,65.4,0,0,1,61.94,3.1,67.19,67.19,0,0,1,23.66,25.6q8.65,16.16,8.66,36.59t-9.44,36.72a70.08,70.08,0,0,1-25.47,25.73Q174.83,327.25,154.4,327.24Zm0-23.27a44.1,44.1,0,0,0,23.53-6.34,45.77,45.77,0,0,0,16.42-17.45,50.92,50.92,0,0,0,6.08-24.83,50,50,0,0,0-6.08-24.83,46.35,46.35,0,0,0-16.42-17.19,46.59,46.59,0,0,0-46.93,0,45,45,0,0,0-16.43,17.19,50.8,50.8,0,0,0-5.95,24.83,51.74,51.74,0,0,0,5.95,24.83A44.31,44.31,0,0,0,154.4,304Z"/><path class="cls-1" d="M512.55,327.24q-20.16,0-36.2-9.44A69.06,69.06,0,0,1,451,292.07q-9.31-16.29-9.57-36.72V137.43a12.71,12.71,0,0,1,3.75-9.57,13.13,13.13,0,0,1,22.63,9.57v69.82a66.47,66.47,0,0,1,21.85-17.19,65.38,65.38,0,0,1,61.93,3.1,67.14,67.14,0,0,1,23.67,25.6q8.65,16.16,8.66,36.59t-9.44,36.72A70.16,70.16,0,0,1,549,317.8Q533,327.25,512.55,327.24Zm0-23.27a44.11,44.11,0,0,0,23.54-6.34,45.77,45.77,0,0,0,16.42-17.45,50.92,50.92,0,0,0,6.08-24.83,50,50,0,0,0-6.08-24.83,46.35,46.35,0,0,0-16.42-17.19,46.61,46.61,0,0,0-46.94,0,45.06,45.06,0,0,0-16.42,17.19,50.8,50.8,0,0,0-6,24.83,51.74,51.74,0,0,0,6,24.83A44.28,44.28,0,0,0,512.55,304Z"/><path class="cls-1" d="M694.35,327.24q-20.18,0-36.2-9.44a69.09,69.09,0,0,1-25.35-25.73q-9.3-16.29-9.56-36.72V137.43a12.71,12.71,0,0,1,3.74-9.57,13.13,13.13,0,0,1,22.63,9.57v69.82a66.47,66.47,0,0,1,21.85-17.19,65.4,65.4,0,0,1,61.94,3.1,67.12,67.12,0,0,1,23.66,25.6q8.66,16.16,8.66,36.59t-9.43,36.72a70.18,70.18,0,0,1-25.48,25.73Q714.78,327.25,694.35,327.24Zm0-23.27a44.1,44.1,0,0,0,23.53-6.34,45.7,45.7,0,0,0,16.42-17.45,50.92,50.92,0,0,0,6.08-24.83,50,50,0,0,0-6.08-24.83,46.27,46.27,0,0,0-16.42-17.19,46.59,46.59,0,0,0-46.93,0,45,45,0,0,0-16.42,17.19,50.8,50.8,0,0,0-5.95,24.83,51.74,51.74,0,0,0,5.95,24.83A44.28,44.28,0,0,0,694.35,304Z"/><path class="cls-1" d="M838.64,326.21A34,34,0,0,1,818.48,320a41,41,0,0,1-13.71-16.94,58.63,58.63,0,0,1-4.92-24.69V137.17a12.94,12.94,0,1,1,25.87,0v141.2c0,6.37,1.2,11.64,3.62,15.77s5.51,6.21,9.3,6.21h6.47a10.7,10.7,0,0,1,8.4,3.62,13.43,13.43,0,0,1,3.23,9.31,11.1,11.1,0,0,1-4.91,9.31q-4.91,3.62-12.67,3.62Z"/><path class="cls-1" d="M998.46,261.43a10.82,10.82,0,0,0,3.36-8.15q0-20.42-7.63-36.07a58.22,58.22,0,0,0-22.11-24.57q-14.49-8.92-34.65-8.92-20.43,0-36.21,9.18a65.3,65.3,0,0,0-24.69,25.34q-8.92,16.17-8.92,37.37,0,20.94,9.44,37.11a67,67,0,0,0,26.11,25.34q16.68,9.18,38.15,9.18a77.93,77.93,0,0,0,25-4.4,71.29,71.29,0,0,0,21.85-11.37q4.39-3.36,4.14-8t-4.66-8.53a11.31,11.31,0,0,0-7.88-2.72,14.75,14.75,0,0,0-8.41,3A50.84,50.84,0,0,1,957.73,302a49.16,49.16,0,0,1-16.42,3q-14.74,0-26.12-6.46a46.68,46.68,0,0,1-23.51-33.88h98.24A11.82,11.82,0,0,0,998.46,261.43Zm-86.25-49Q922.7,206,937.43,206q12.92,0,22,5.94a39.37,39.37,0,0,1,14,16.17A52.16,52.16,0,0,1,978,244H892a53.69,53.69,0,0,1,4.36-13.83A41.66,41.66,0,0,1,912.21,212.42Z"/><path class="cls-1" d="M382.36,287.22c.21-.71.44-1.41.63-2.13a85.06,85.06,0,0,0,3.22-23.81V197.66a13.19,13.19,0,1,0-26.37,0v63.62q0,14.48-5.44,23.92a33.84,33.84,0,0,1-14.74,14A45.11,45.11,0,0,1,324,303.42a45.09,45.09,0,0,1-15.23-4.24,33.78,33.78,0,0,1-14.74-14q-5.43-9.44-5.43-23.92V197.69a13.19,13.19,0,1,0-26.38,0V261.3a84.57,84.57,0,0,0,3.26,23.92c.15.58.33,1.14.5,1.7.46,1.43.92,2.86,1.47,4.21.65,1.67,1.42,3.29,2.23,4.88.25.48.43,1,.68,1.49.15.26.33.48.47.73.25.43.42.89.68,1.32.59.95,1.28,1.8,1.91,2.71s1.36,2,2.1,3c.41.53.87,1,1.3,1.52a53.77,53.77,0,0,0,15.79,13.1,60.34,60.34,0,0,0,7.31,3.35,65.56,65.56,0,0,0,24,4.25h.1c.19,0,.37,0,.56,0a63.17,63.17,0,0,0,29.52-6.85c.57-.29,1.19-.5,1.76-.81A53.58,53.58,0,0,0,371,307.52c.73-.83,1.48-1.64,2.16-2.52.53-.69,1-1.44,1.53-2.17.76-1.08,1.58-2.11,2.28-3.26.31-.51.52-1.06.82-1.58.1-.18.23-.33.33-.51.18-.34.3-.72.48-1.06a51,51,0,0,0,2.51-5.48C381.54,289.74,382,288.48,382.36,287.22Z"/><circle class="cls-1" cx="95.62" cy="26" r="17.44"/><circle class="cls-1" cx="95.62" cy="64.12" r="12.32"/><circle class="cls-1" cx="95.62" cy="96.91" r="8.49"/><path class="cls-2" d="M154.4,315.63q-20.18,0-36.21-9.44a69.14,69.14,0,0,1-25.34-25.73q-9.3-16.29-9.57-36.72V125.81A12.71,12.71,0,0,1,87,116.24a13.06,13.06,0,0,1,9.44-3.62,12.44,12.44,0,0,1,13.19,13.19v69.83a66.47,66.47,0,0,1,21.85-17.2,65.4,65.4,0,0,1,61.94,3.1,67.27,67.27,0,0,1,23.66,25.6q8.65,16.17,8.66,36.6t-9.44,36.72a70.08,70.08,0,0,1-25.47,25.73Q174.83,315.63,154.4,315.63Zm0-23.28A44,44,0,0,0,177.93,286a45.77,45.77,0,0,0,16.42-17.45,50.91,50.91,0,0,0,6.08-24.82,50,50,0,0,0-6.08-24.83,46.38,46.38,0,0,0-16.42-17.2,46.66,46.66,0,0,0-46.93,0,45,45,0,0,0-16.43,17.2,50.77,50.77,0,0,0-5.95,24.83,51.73,51.73,0,0,0,5.95,24.82,44.31,44.31,0,0,0,39.83,23.79Z"/><path class="cls-2" d="M512.55,315.63q-20.16,0-36.2-9.44A69.06,69.06,0,0,1,451,280.46q-9.31-16.29-9.57-36.72V125.81a12.71,12.71,0,0,1,3.75-9.57,13.13,13.13,0,0,1,22.63,9.57v69.83a66.37,66.37,0,0,1,21.85-17.2,65.38,65.38,0,0,1,61.93,3.1,67.21,67.21,0,0,1,23.67,25.6q8.65,16.17,8.66,36.6t-9.44,36.72A70.16,70.16,0,0,1,549,306.19Q533,315.63,512.55,315.63Zm0-23.28A44,44,0,0,0,536.09,286a45.77,45.77,0,0,0,16.42-17.45,50.91,50.91,0,0,0,6.08-24.82,50,50,0,0,0-6.08-24.83,46.38,46.38,0,0,0-16.42-17.2,46.68,46.68,0,0,0-46.94,0,45.09,45.09,0,0,0-16.42,17.2,50.77,50.77,0,0,0-6,24.83,51.73,51.73,0,0,0,6,24.82,44.28,44.28,0,0,0,39.82,23.79Z"/><path class="cls-2" d="M694.35,315.63q-20.18,0-36.2-9.44a69.09,69.09,0,0,1-25.35-25.73q-9.3-16.29-9.56-36.72V125.81a12.71,12.71,0,0,1,3.74-9.57,13.13,13.13,0,0,1,22.63,9.57v69.83a66.37,66.37,0,0,1,21.85-17.2,65.4,65.4,0,0,1,61.94,3.1,67.19,67.19,0,0,1,23.66,25.6q8.66,16.17,8.66,36.6t-9.43,36.72a70.18,70.18,0,0,1-25.48,25.73Q714.78,315.63,694.35,315.63Zm0-23.28A44,44,0,0,0,717.88,286a45.7,45.7,0,0,0,16.42-17.45,50.91,50.91,0,0,0,6.08-24.82,50,50,0,0,0-6.08-24.83,46.3,46.3,0,0,0-16.42-17.2,46.66,46.66,0,0,0-46.93,0,45,45,0,0,0-16.42,17.2,50.77,50.77,0,0,0-5.95,24.83,51.73,51.73,0,0,0,5.95,24.82,44.28,44.28,0,0,0,39.82,23.79Z"/><path class="cls-2" d="M838.64,314.59a34,34,0,0,1-20.16-6.2,41.12,41.12,0,0,1-13.71-16.95q-4.92-10.71-4.92-24.69V125.56a12.94,12.94,0,1,1,25.87,0V266.75q0,9.57,3.62,15.77t9.3,6.21h6.47a10.73,10.73,0,0,1,8.4,3.62,13.44,13.44,0,0,1,3.23,9.31,11.1,11.1,0,0,1-4.91,9.31q-4.91,3.63-12.67,3.62Z"/><path class="cls-2" d="M998.46,249.81a10.82,10.82,0,0,0,3.36-8.15q0-20.41-7.63-36.07A58.22,58.22,0,0,0,972.08,181q-14.49-8.91-34.65-8.92-20.43,0-36.21,9.18a65.26,65.26,0,0,0-24.69,25.35q-8.92,16.16-8.92,37.36,0,21,9.44,37.11a67,67,0,0,0,26.11,25.34q16.68,9.19,38.15,9.19a78.21,78.21,0,0,0,25-4.4,71.31,71.31,0,0,0,21.85-11.38q4.39-3.36,4.14-8t-4.66-8.53a11.31,11.31,0,0,0-7.88-2.72,14.83,14.83,0,0,0-8.41,3,50.85,50.85,0,0,1-13.57,6.85,48.93,48.93,0,0,1-16.42,3,51.92,51.92,0,0,1-26.12-6.47A46.68,46.68,0,0,1,891.68,253h98.24A11.82,11.82,0,0,0,998.46,249.81Zm-86.25-49q10.49-6.47,25.22-6.47,12.92,0,22,5.95a39.34,39.34,0,0,1,14,16.16A52.22,52.22,0,0,1,978,232.36H892a53.88,53.88,0,0,1,4.36-13.84A41.64,41.64,0,0,1,912.21,200.81Z"/><path class="cls-2" d="M382.36,275.6c.21-.7.44-1.4.63-2.12a85.08,85.08,0,0,0,3.22-23.82V186a13.19,13.19,0,1,0-26.37,0v63.62q0,14.47-5.44,23.92a33.78,33.78,0,0,1-14.74,14A45.11,45.11,0,0,1,324,291.8a44.85,44.85,0,0,1-15.23-4.23,33.84,33.84,0,0,1-14.74-14q-5.43-9.45-5.43-23.93V186.07a13.19,13.19,0,1,0-26.38,0v63.61a84.64,84.64,0,0,0,3.26,23.93c.15.57.33,1.13.5,1.7.46,1.43.92,2.85,1.47,4.21.65,1.66,1.42,3.28,2.23,4.88.25.48.43,1,.68,1.49.15.25.33.47.47.72.25.44.42.9.68,1.32.59,1,1.28,1.81,1.91,2.72s1.36,2,2.1,3c.41.52.87,1,1.3,1.52a53.58,53.58,0,0,0,15.79,13.09,58.85,58.85,0,0,0,7.31,3.35,65.36,65.36,0,0,0,24,4.26h.1c.19,0,.37,0,.56,0A63.17,63.17,0,0,0,354.07,309c.57-.28,1.19-.49,1.76-.8A53.78,53.78,0,0,0,371,295.9c.73-.83,1.48-1.64,2.16-2.51.53-.7,1-1.45,1.53-2.18.76-1.08,1.58-2.11,2.28-3.25.31-.51.52-1.06.82-1.58.1-.18.23-.34.33-.52.18-.33.3-.72.48-1.05a51.94,51.94,0,0,0,2.51-5.48C381.54,278.12,382,276.86,382.36,275.6Z"/><circle class="cls-2" cx="95.62" cy="19.94" r="17.44"/><circle class="cls-2" cx="95.62" cy="58.06" r="12.32"/><circle class="cls-2" cx="95.62" cy="90.86" r="8.49"/></svg>