<svg id="Layer_1" data-name="Layer 1" xmlns="http://www.w3.org/2000/svg" viewBox="0 0 23 23" width="40" height="40">
<defs>
  <style>.cls-1{fill:#2b95ad;}.cls-2{fill:#fff;}</style>
</defs>
<title>W-D-23x</title>
<path class="cls-1" d="M21.74,4.09,21,3.84,15.09,1.9a1.63,1.63,0,0,0-1.49.26l-8.32,5L1.6,9.42c-.13.08-.26.16-.38.25a1.27,1.27,0,0,0-.36,1.84c.18.3.36.61.55.91l1.48,2.45,3.38,5.59a1.3,1.3,0,0,0,1.12.75A1.6,1.6,0,0,0,8,21.06a2.3,2.3,0,0,0,.44-.23l3.29-2,8.75-5.27a2,2,0,0,0,1-1.49c.14-1,.3-1.92.46-2.87l.34-2q.16-.9.3-1.8A1.07,1.07,0,0,0,21.74,4.09ZM22,5.33c-.09.6-.19,1.2-.29,1.79l-.34,2c-.17,1-.33,1.92-.47,2.88a1.44,1.44,0,0,1-.71,1.1l-8.75,5.27-3.29,2a2.58,2.58,0,0,1-.37.19c-.49.21-.76.12-1.06-.37L3.37,14.58,1.89,12.13l-.54-.91a.71.71,0,0,1,.22-1.1,3.62,3.62,0,0,1,.32-.22L5.57,7.68l8.32-5a1.62,1.62,0,0,1,.76-.29.46.46,0,0,1,.21.05l6,2,.75.25C22,4.76,22.1,4.92,22,5.33Z"/>

<path class="cls-2" d="M21.57,4.63l-.75-.25-6-2a.46.46,0,0,0-.21-.05,1.62,1.62,0,0,0-.76.29l-8.32,5L1.89,9.9a3.62,3.62,0,0,0-.32.22.71.71,0,0,0-.22,1.1l.54.91,1.48,2.45,3.38,5.59c.3.49.57.58,1.06.37a2.58,2.58,0,0,0,.37-.19l3.29-2,8.75-5.27a1.44,1.44,0,0,0,.71-1.1c.14-1,.3-1.92.47-2.88l.34-2c.1-.59.2-1.19.29-1.79C22.1,4.92,22,4.76,21.57,4.63ZM12.35,6a1.92,1.92,0,0,1,2.44.85A1.9,1.9,0,0,1,14,9.28a1.93,1.93,0,0,1-2.45-.83A2,2,0,0,1,12.35,6Zm-.81,10.61a1.93,1.93,0,0,1-2.46-.81,1.92,1.92,0,0,1,.79-2.43,1.93,1.93,0,0,1,2.46.8A2,2,0,0,1,11.54,16.63Zm4.82-4.84c-.7,0-1.4,0-2.1,0l-6.6.09H7.44a.53.53,0,0,1-.52-.52.5.5,0,0,1,.51-.52c.49,0,1,0,1.49,0l7.34-.09a.56.56,0,0,1,.62.3C17.06,11.42,16.81,11.78,16.36,11.79Z"/>

<path class="cls-1" d="M16.36,11.79c-.7,0-1.4,0-2.1,0l-6.6.09H7.44a.53.53,0,0,1-.52-.52.5.5,0,0,1,.51-.52c.49,0,1,0,1.49,0l7.34-.09a.56.56,0,0,1,.62.3C17.06,11.42,16.81,11.78,16.36,11.79Z"/>

<path class="cls-1" d="M11.54,16.63a1.93,1.93,0,0,1-2.46-.81,1.92,1.92,0,0,1,.79-2.43,1.93,1.93,0,0,1,2.46.8A2,2,0,0,1,11.54,16.63Z"/>

<path class="cls-1" d="M14,9.28a1.93,1.93,0,0,1-2.45-.83A2,2,0,0,1,12.35,6a1.92,1.92,0,0,1,2.44.85A1.9,1.9,0,0,1,14,9.28Z"/></svg>