<svg xmlns="http://www.w3.org/2000/svg" xmlns:xlink="http://www.w3.org/1999/xlink" viewBox="0 0 75 75"><defs><style>.cls-1{fill:url(#Water_10);}.cls-2{fill:url(#Water_4);}.cls-3{fill:url(#Water_1);}.cls-4{fill:url(#Water_3);}.cls-5{fill:#fff;}</style><linearGradient id="Water_10" y1="37.5" x2="75" y2="37.5" gradientUnits="userSpaceOnUse"><stop offset="0" stop-color="#5080b1"/><stop offset="0.12" stop-color="#477dae"/><stop offset="0.31" stop-color="#2d73a7"/><stop offset="0.56" stop-color="#04649c"/><stop offset="0.58" stop-color="#00639b"/><stop offset="1" stop-color="#004e8c"/></linearGradient><linearGradient id="Water_4" x1="64.95" y1="41.45" x2="45.93" y2="61.01" gradientUnits="userSpaceOnUse"><stop offset="0" stop-color="#77b2c6"/><stop offset="0.5" stop-color="#349ab4"/><stop offset="1" stop-color="#0089a6"/></linearGradient><linearGradient id="Water_1" x1="3.15" y1="32.11" x2="61.06" y2="32.11" gradientUnits="userSpaceOnUse"><stop offset="0" stop-color="#d0e7ea"/><stop offset="0.5" stop-color="#a9d7de"/><stop offset="0.73" stop-color="#9fd2da"/><stop offset="1" stop-color="#98cfd8"/></linearGradient><linearGradient id="Water_3" x1="19.34" y1="32.13" x2="44.86" y2="32.13" gradientUnits="userSpaceOnUse"><stop offset="0" stop-color="#8fccd5"/><stop offset="0.5" stop-color="#5bbac7"/><stop offset="1" stop-color="#00aab9"/></linearGradient></defs><title>Artboard 103 copy 13</title><g id="Layer_2" data-name="Layer 2"><path class="cls-1" d="M50.94,5.62l7.65,7.66-1.3,2.11c-.81,1.32-1.63,2.65-2.46,4a.5.5,0,0,0,0,.56,24.55,24.55,0,0,1,2,4.8.45.45,0,0,0,.38.35l6,1.4c.35.08.69.18,1.06.28v1q0,3.24,0,6.48a.68.68,0,0,0,.36.66A21.37,21.37,0,0,1,74.8,50.59a20.72,20.72,0,0,1-1,9.81,21.62,21.62,0,0,1-34.71,9.22,20.58,20.58,0,0,1-4.25-5.09.59.59,0,0,0-.57-.32h-6.4c-1.18,0-1.18,0-1.45-1.16q-.69-3-1.39-5.91a.5.5,0,0,0-.29-.3,25.84,25.84,0,0,1-4.8-2,.57.57,0,0,0-.68,0l-5.84,3.62-.16.09L5.61,51c.88-1.44,1.78-2.89,2.68-4.34.37-.6.74-1.19,1.1-1.79a.51.51,0,0,0,0-.42,25.84,25.84,0,0,1-2-4.87A.48.48,0,0,0,7,39.17L.31,37.6c-.23-.06-.31-.14-.31-.38q0-5.09,0-10.17a.34.34,0,0,1,.31-.39L7,25.07a.51.51,0,0,0,.43-.4,24.44,24.44,0,0,1,2-4.73.54.54,0,0,0,0-.62C8.14,17.39,7,15.44,5.74,13.51a.33.33,0,0,1,0-.49C8.21,10.62,10.62,8.2,13,5.79a.31.31,0,0,1,.46,0l5.81,3.61a.56.56,0,0,0,.65,0,23.83,23.83,0,0,1,4.73-2A.48.48,0,0,0,25.05,7c.52-2.23,1.06-4.45,1.57-6.68C26.68.07,26.78,0,27,0H37.16c.26,0,.37.07.43.34.51,2.22,1,4.44,1.56,6.65a.48.48,0,0,0,.37.42,24.26,24.26,0,0,1,4.8,2,.48.48,0,0,0,.56,0C46.9,8.11,48.93,6.86,50.94,5.62Z"/><path class="cls-2" d="M53.37,71.88A18.51,18.51,0,1,0,34.85,53.21,18.54,18.54,0,0,0,53.37,71.88Z"/><path class="cls-3" d="M35,3.17l-.14,0H29.43c-.23,0-.28.1-.32.29-.46,2-.94,3.94-1.38,5.91-.09.4-.23.65-.67.68a3.4,3.4,0,0,0-.7.17,23.05,23.05,0,0,0-6.53,2.86.39.39,0,0,1-.51,0c-1.15-.73-2.31-1.44-3.47-2.16L13.75,9.6,9.59,13.75l.13.22c1.11,1.8,2.21,3.59,3.33,5.38a.39.39,0,0,1,0,.48A23.33,23.33,0,0,0,10,27.3a.41.41,0,0,1-.36.37l-3.49.82-2.95.7V35l.26.08c2,.48,4.07,1,6.12,1.44A.5.5,0,0,1,10,37a22.79,22.79,0,0,0,3.09,7.43.35.35,0,0,1,0,.45c-.48.75-.94,1.52-1.41,2.28L9.57,50.5l4.16,4.14.31-.18,5.28-3.28a.42.42,0,0,1,.51,0,22.64,22.64,0,0,0,7.48,3.1.4.4,0,0,1,.34.35c.31,1.35.63,2.69,1,4l.57,2.41h4a21.88,21.88,0,0,1-.74-13A15.65,15.65,0,0,1,21,43.5a15.21,15.21,0,0,1-4.82-11.18A15.83,15.83,0,0,1,29.71,16.41a15.08,15.08,0,0,1,10.75,2.21c5,3.19,7.42,7.86,7.58,13.77a22,22,0,0,1,13,.76V29.2L60.21,29l-5.62-1.33a.57.57,0,0,1-.32-.31c-.13-.44-.22-.89-.34-1.33a24.63,24.63,0,0,0-2.77-6.22.43.43,0,0,1,0-.4c.73-1.21,1.48-2.4,2.22-3.6l1.24-2L50.46,9.6l-.22.13c-1.78,1.1-3.55,2.19-5.32,3.3a.47.47,0,0,1-.58,0,12.15,12.15,0,0,0-1.05-.63A21.9,21.9,0,0,0,37,10c-.31-.07-.47-.18-.52-.52s-.22-.94-.33-1.41Q35.62,5.63,35,3.17Z"/><path class="cls-4" d="M31.84,44.9c.42,0,.84-.06,1.26,0a.55.55,0,0,0,.56-.39,21.07,21.07,0,0,1,3.79-5.73,21.65,21.65,0,0,1,7-5.09c.19-.08.32-.16.33-.4a12.6,12.6,0,0,0-2.94-9.33A12.75,12.75,0,0,0,24,22.27,12.56,12.56,0,0,0,20,28a13,13,0,0,0-.61,5.31A12.85,12.85,0,0,0,31.84,44.9Z"/><path class="cls-5" d="M54.9,57.49H51.82c0-.11,0-.22,0-.33V41.21c0-.32.07-.44.41-.43.89,0,1.78,0,2.7,0Z"/><path class="cls-5" d="M51.83,61H54.9v5H51.83Z"/></g></svg>