<svg id="Layer_1" data-name="Layer 1" xmlns="http://www.w3.org/2000/svg" viewBox="0 0 23 23" width="38" height="38"><defs><style>.cls-1{fill:#2b95ad;}.cls-2{fill:#faf9f9;}</style></defs><title>W-HH-23x</title><path class="cls-1" d="M21,13.4c0-2.81-.44-3.28-3.26-3.43-.15,0-.43.08-.41-.15,0-.56-.26-1.15.4-1.65a2.84,2.84,0,0,0-.4-4.93,3.74,3.74,0,0,0-2.46-.52.74.74,0,0,1-.87-.4,5,5,0,0,0-8-.14,1.18,1.18,0,0,1-.93.53A3.09,3.09,0,0,0,2.19,4.84,2.79,2.79,0,0,0,3.37,8.15c.31.23.26.49.26.77,0,1.9,0,3.8,0,5.7s0,3.81,0,5.71a2.33,2.33,0,0,0,2.27,2.38c3,.05,6,.06,9,0a2.35,2.35,0,0,0,2.34-2.1,7.58,7.58,0,0,0,.06-1.17c0-1.31,0-1.31,1.32-1.33A2.24,2.24,0,0,0,21,15.82C21,15,21,14.21,21,13.4Zm-4.66,6.76a1.52,1.52,0,0,1-1.75,1.67H6.34A1.6,1.6,0,0,1,4.54,20c0-1.77,0-3.55,0-5.33h0c0-1.83,0-3.65,0-5.48,0-.4,0-.62.51-.45a.48.48,0,0,0,.29,0c1.14-.47,2.11,0,3.12.45a3.29,3.29,0,0,0,2,.19c.45-.09.53.06.54.47A2.11,2.11,0,0,0,12.29,12a1.92,1.92,0,0,0,2.52-1.69,2.71,2.71,0,0,0,0-.29c0-1,0-1,1-1.07.51,0,.54.15.54.55,0,2.66,0,5.31,0,8C16.32,18.36,16.34,19.26,16.31,20.16Zm.8-12.67a3.12,3.12,0,0,1-2.64.5c-.52-.13-.58,0-.56.47a14.22,14.22,0,0,1,0,1.46c0,.71-.45,1.25-1,1.25s-1-.47-1-1.2c0-.24,0-.49,0-.73a2.8,2.8,0,0,1,0-.29c.07-.61,0-.86-.76-.61a3.78,3.78,0,0,1-3.78-.71c-.3-.24-.5-.33-.87-.1a2.38,2.38,0,0,1-2,.17A2,2,0,0,1,3,5.39,2.19,2.19,0,0,1,5.43,3.64c.6.09.82-.1,1.11-.58A3.75,3.75,0,0,1,10.25,1.2a3.65,3.65,0,0,1,3.21,2.08c.24.49.43.58,1,.44a3.11,3.11,0,0,1,2.71.51A1.93,1.93,0,0,1,17.11,7.49Zm2.94,8.21a1.37,1.37,0,0,1-1.49,1.5c-.27,0-.54,0-.81,0s-.5,0-.49-.43.21-.38.47-.36.25,0,.37,0c.69,0,1-.33,1-1,0-.9,0-1.81,0-2.71s-.27-1-1.07-1c-.25,0-.69.26-.73-.31,0-.29,0-.54.41-.5s.58,0,.88,0a1.4,1.4,0,0,1,1.49,1.52c0,.56,0,1.12,0,1.68h0C20.06,14.63,20.07,15.16,20.05,15.7Zm-1.88-1.59c0,.34,0,.68,0,1s-.22.38-.5.4-.41-.13-.4-.43c0-.7,0-1.4,0-2.1,0-.34.12-.41.42-.4s.51,0,.48.42S18.17,13.75,18.17,14.11Z"/><path class="cls-2" d="M16.32,17.46c0,.9,0,1.8,0,2.7a1.52,1.52,0,0,1-1.75,1.67H6.34A1.6,1.6,0,0,1,4.54,20c0-1.77,0-3.55,0-5.33h0c0-1.83,0-3.65,0-5.48,0-.4,0-.62.51-.45a.48.48,0,0,0,.29,0c1.14-.47,2.11,0,3.12.45a3.29,3.29,0,0,0,2,.19c.45-.09.53.06.54.47A2.11,2.11,0,0,0,12.29,12a1.92,1.92,0,0,0,2.52-1.69,2.71,2.71,0,0,0,0-.29c0-1,0-1,1-1.07.51,0,.54.15.54.55C16.31,12.15,16.32,14.8,16.32,17.46Z"/><path class="cls-2" d="M17.11,7.49a3.12,3.12,0,0,1-2.64.5c-.52-.13-.58,0-.56.47a14.22,14.22,0,0,1,0,1.46c0,.71-.45,1.25-1,1.25s-1-.47-1-1.2c0-.24,0-.49,0-.73a2.8,2.8,0,0,1,0-.29c.07-.61,0-.86-.76-.61a3.78,3.78,0,0,1-3.78-.71c-.3-.24-.5-.33-.87-.1a2.38,2.38,0,0,1-2,.17A2,2,0,0,1,3,5.39,2.19,2.19,0,0,1,5.43,3.64c.6.09.82-.1,1.11-.58A3.75,3.75,0,0,1,10.25,1.2a3.65,3.65,0,0,1,3.21,2.08c.24.49.43.58,1,.44a3.11,3.11,0,0,1,2.71.51A1.93,1.93,0,0,1,17.11,7.49Z"/><path class="cls-2" d="M20.06,14.09c0,.54,0,1.07,0,1.61a1.37,1.37,0,0,1-1.49,1.5c-.27,0-.54,0-.81,0s-.5,0-.49-.43.21-.38.47-.36.25,0,.37,0c.69,0,1-.33,1-1,0-.9,0-1.81,0-2.71s-.27-1-1.07-1c-.25,0-.69.26-.73-.31,0-.29,0-.54.41-.5s.58,0,.88,0a1.4,1.4,0,0,1,1.49,1.52c0,.56,0,1.12,0,1.68Z"/><path class="cls-2" d="M18.17,14.11c0,.34,0,.68,0,1s-.22.38-.5.4-.41-.13-.4-.43c0-.7,0-1.4,0-2.1,0-.34.12-.41.42-.4s.51,0,.48.42S18.17,13.75,18.17,14.11Z"/></svg>