<svg id="Layer_1" data-name="Layer 1" xmlns="http://www.w3.org/2000/svg" viewBox="0 0 23 23" width="40" height="40"><defs><style>.cls-1{fill:#2b95ad;}.cls-2{fill:#fff;}</style></defs><title>W-M-23x</title><path class="cls-1" d="M.5.5v22h22V.5ZM21.9,21.91H1.1V1.1H21.9Z"/><path class="cls-2" d="M1.1,1.1V21.91H21.9V1.1Zm1.9,20H1.51V19.61H3ZM3.38,3.28H1.89V1.81H3.38Zm9,16a1.29,1.29,0,1,1-1.83-1.83,1.29,1.29,0,1,1,1.83,1.83Zm3.13-8.63A4.71,4.71,0,0,1,14.58,12a12,12,0,0,1-1.32,1.2,2,2,0,0,0-.67,1,3.6,3.6,0,0,0-.19,1,1,1,0,0,1-.26.68.9.9,0,0,1-.69.27.92.92,0,0,1-.95-1,4.05,4.05,0,0,1,.37-1.6A4.27,4.27,0,0,1,12,12.14c.35-.3.67-.59,1-.88a3.76,3.76,0,0,0,.71-1A3.22,3.22,0,0,0,14,8.86a2.25,2.25,0,0,0-2.33-2.3,3.07,3.07,0,0,0-1.51.34,2.1,2.1,0,0,0-.89.93A3.24,3.24,0,0,0,9,9.23a.94.94,0,0,1-.26.68.93.93,0,0,1-.69.27.92.92,0,0,1-1-.95,4.5,4.5,0,0,1,.57-2.29,4,4,0,0,1,1.6-1.56,5,5,0,0,1,2.42-.57,4.46,4.46,0,0,1,2.15.51,3.91,3.91,0,0,1,1.49,1.42,4,4,0,0,1,.55,2.12A4.54,4.54,0,0,1,15.5,10.67Zm3.56-8.86h1.5V3.28h-1.5Zm2,19.28H19.6V19.61h1.49Z"/><path class="cls-1" d="M15.83,8.86a4.54,4.54,0,0,1-.33,1.81A4.71,4.71,0,0,1,14.58,12a12,12,0,0,1-1.32,1.2,2,2,0,0,0-.67,1,3.6,3.6,0,0,0-.19,1,1,1,0,0,1-.26.68.9.9,0,0,1-.69.27.92.92,0,0,1-.95-1,4.05,4.05,0,0,1,.37-1.6A4.27,4.27,0,0,1,12,12.14c.35-.3.67-.59,1-.88a3.76,3.76,0,0,0,.71-1A3.22,3.22,0,0,0,14,8.86a2.25,2.25,0,0,0-2.33-2.3,3.07,3.07,0,0,0-1.51.34,2.1,2.1,0,0,0-.89.93A3.24,3.24,0,0,0,9,9.23a.94.94,0,0,1-.26.68.93.93,0,0,1-.69.27.92.92,0,0,1-1-.95,4.5,4.5,0,0,1,.57-2.29,4,4,0,0,1,1.6-1.56,5,5,0,0,1,2.42-.57,4.46,4.46,0,0,1,2.15.51,3.91,3.91,0,0,1,1.49,1.42A4,4,0,0,1,15.83,8.86Z"/><path class="cls-1" d="M12.76,18.39a1.24,1.24,0,0,1-.39.91,1.29,1.29,0,1,1-1.83-1.83,1.31,1.31,0,0,1,2.22.92Z"/><rect class="cls-1" x="19.6" y="19.61" width="1.49" height="1.48"/><rect class="cls-1" x="1.51" y="19.61" width="1.49" height="1.48"/><rect class="cls-1" x="1.89" y="1.81" width="1.49" height="1.47"/><rect class="cls-1" x="19.06" y="1.81" width="1.5" height="1.47"/></svg>