<svg id="Layer_1" data-name="Layer 1" xmlns="http://www.w3.org/2000/svg" viewBox="0 0 23 23" width="40" height="40"><defs><style>.cls-1{fill:#2b95ad;}.cls-2{fill:#fff;}</style></defs><title>W-R-23x</title><path class="cls-1" d="M21.38,4.05a2.22,2.22,0,0,0-1-1.29,4.15,4.15,0,0,0-1.63-.56,8.64,8.64,0,0,0,0-.88V1.25a.67.67,0,0,0-.6-.7A1.81,1.81,0,0,0,17.77.5a1.77,1.77,0,0,1-.4,0h-.63c-2,0-4,0-5.94,0H6.46c-.37,0-.74,0-1.09.05l-.29,0A.51.51,0,0,0,4.61,1a3.11,3.11,0,0,0-.07.47c0,.21,0,.43,0,.67A4.15,4.15,0,0,0,3,2.57,2.48,2.48,0,0,0,1.51,4.93a3.93,3.93,0,0,0,.28,1.45A7.18,7.18,0,0,0,3.2,8.57a16.72,16.72,0,0,0,4.15,3.28,5,5,0,0,0,.59.25l.23.09.23.35.52.75a6.36,6.36,0,0,1,.89,1.79c.06.23.11.46.15.7a3.4,3.4,0,0,1,.07.34l0,.19H13.3v-.23A4.33,4.33,0,0,1,13.52,15a7.67,7.67,0,0,1,1-1.83q.3-.46.63-.93l.08-.12a5.52,5.52,0,0,0,.72-.38c.49-.3,1-.64,1.61-1.07a12.32,12.32,0,0,0,2.7-2.57,5.59,5.59,0,0,0,1.24-2.66A3.48,3.48,0,0,0,21.38,4.05ZM21,5.39a5.13,5.13,0,0,1-1.15,2.44,11.6,11.6,0,0,1-2.6,2.46c-.6.42-1.1.76-1.58,1.06a8,8,0,0,1-.73.38l-.06,0-.16.24-.63.93a8.2,8.2,0,0,0-1,1.94,4.13,4.13,0,0,0-.21,1H10.47l0-.13c0-.25-.09-.5-.16-.74A6.81,6.81,0,0,0,9.33,13c-.17-.26-.35-.51-.52-.76l-.32-.46-.07,0-.31-.12a4.35,4.35,0,0,1-.51-.23,16,16,0,0,1-4-3.18,6.58,6.58,0,0,1-1.31-2A3.47,3.47,0,0,1,2,4.93,2,2,0,0,1,3.2,3a3.75,3.75,0,0,1,1.62-.37h.26l0-.26a6.5,6.5,0,0,1,0-.86,2.44,2.44,0,0,1,.06-.39s0,0,0,0l.29,0A6.66,6.66,0,0,1,6.18,1H10.8c2,0,4,0,5.94,0h1A.68.68,0,0,1,18,1c.2,0,.22.08.22.23v.07a7.51,7.51,0,0,1,0,1.06l0,.25.33,0h.1a3.76,3.76,0,0,1,1.47.5,1.7,1.7,0,0,1,.8,1A2.87,2.87,0,0,1,21,5.39Z"/><path class="cls-1" d="M15.79,19a3.29,3.29,0,0,1-1.73-.72,2.92,2.92,0,0,1-.8-1.09A.36.36,0,0,0,12.9,17H10.16a.43.43,0,0,0-.42.24,3.58,3.58,0,0,1-.45.73A2.74,2.74,0,0,1,8,18.81c-.27.08-.57.14-.85.2l-.1,0a.74.74,0,0,0-.62.56,1,1,0,0,0,0,.23l0,1.31c0,.24,0,.49,0,.74,0,.49.38.59.65.62H16a.57.57,0,0,0,.54-.41,1.24,1.24,0,0,0,.06-.37c0-.57,0-1.14,0-1.71v-.16C16.61,19.25,16.3,19.09,15.79,19Zm.32,1c0,.57,0,1.15,0,1.72a.66.66,0,0,1,0,.23s0,0-.1.06H7.14c-.22,0-.22-.06-.22-.16s0-.48,0-.72l0-1.32a.74.74,0,0,1,0-.12c0-.07,0-.13.24-.18l.1,0c.29-.06.6-.13.9-.22a3.17,3.17,0,0,0,1.51-1,3.56,3.56,0,0,0,.5-.8h2.69a3.39,3.39,0,0,0,.89,1.19,3.85,3.85,0,0,0,2,.84c.4.05.4.1.39.33Z"/><path class="cls-2" d="M16.11,19.83V20c0,.57,0,1.15,0,1.72a.66.66,0,0,1,0,.23s0,0-.1.06H7.14c-.22,0-.22-.06-.22-.16s0-.48,0-.72l0-1.32a.74.74,0,0,1,0-.12c0-.07,0-.13.24-.18l.1,0c.29-.06.6-.13.9-.22a3.17,3.17,0,0,0,1.51-1,3.56,3.56,0,0,0,.5-.8h2.69a3.39,3.39,0,0,0,.89,1.19,3.85,3.85,0,0,0,2,.84C16.12,19.55,16.12,19.6,16.11,19.83Z"/><path class="cls-2" d="M20.9,4.18a1.7,1.7,0,0,0-.8-1,3.76,3.76,0,0,0-1.47-.5h-.1l-.33,0,0-.25a7.51,7.51,0,0,0,0-1.06V1.26c0-.15,0-.19-.22-.23a.68.68,0,0,0-.27,0h-1c-2,0-4,0-5.94,0H6.18a6.66,6.66,0,0,0-.76.06l-.29,0s0,0,0,0A2.44,2.44,0,0,0,5,1.51a6.5,6.5,0,0,0,0,.86l0,.26H4.82A3.75,3.75,0,0,0,3.2,3,2,2,0,0,0,2,4.93a3.47,3.47,0,0,0,.25,1.28,6.58,6.58,0,0,0,1.31,2,16,16,0,0,0,4,3.18,4.35,4.35,0,0,0,.51.23l.31.12.07,0,.32.46c.17.25.35.5.52.76A6.81,6.81,0,0,1,10.28,15c.07.24.11.49.16.74l0,.13h2.38a4.13,4.13,0,0,1,.21-1,8.2,8.2,0,0,1,1-1.94l.63-.93.16-.24.06,0a8,8,0,0,0,.73-.38c.48-.3,1-.64,1.58-1.06a11.6,11.6,0,0,0,2.6-2.46A5.13,5.13,0,0,0,21,5.39,2.87,2.87,0,0,0,20.9,4.18ZM6.57,9.64c-.15-.12-.32-.23-.48-.35S5.63,9,5.45,8.83A8.86,8.86,0,0,1,3.61,6.88a3.83,3.83,0,0,1-.73-1.74A1.21,1.21,0,0,1,3.7,3.77a4.26,4.26,0,0,1,.61-.16l.52-.08.38,0,0,.23c.16.89.32,1.68.48,2.4a12.22,12.22,0,0,0,1.2,3.21l.54,1ZM19.76,6.33a9.71,9.71,0,0,1-2.12,2.49c-.23.21-.48.4-.72.58l-1,.72.48-.94A14.07,14.07,0,0,0,17.8,5.11l0-.22c.06-.38.13-.76.19-1.14l0-.24.32.05a4,4,0,0,1,1,.24A1.12,1.12,0,0,1,20.15,5,3,3,0,0,1,19.76,6.33Z"/><path class="cls-1" d="M19.38,3.8a4,4,0,0,0-1-.24l-.32-.05,0,.24c-.06.38-.13.76-.19,1.14l0,.22a14.07,14.07,0,0,1-1.37,4.07l-.48.94,1-.72c.24-.18.49-.37.72-.58a9.71,9.71,0,0,0,2.12-2.49A3,3,0,0,0,20.15,5,1.12,1.12,0,0,0,19.38,3.8Zm-.05,2.3a9.46,9.46,0,0,1-2,2.36,14.74,14.74,0,0,0,1-3.27l0-.21.15-.91a3.16,3.16,0,0,1,.72.18.66.66,0,0,1,.48.7A2.51,2.51,0,0,1,19.33,6.1Z"/><path class="cls-1" d="M6.93,9.32a12.22,12.22,0,0,1-1.2-3.21c-.16-.72-.32-1.51-.48-2.4l0-.23-.38,0-.52.08a4.26,4.26,0,0,0-.61.16,1.21,1.21,0,0,0-.82,1.37,3.83,3.83,0,0,0,.73,1.74,8.86,8.86,0,0,0,1.84,2c.18.14.41.3.64.46s.33.23.48.35l.9.66ZM5.76,8.45A8.43,8.43,0,0,1,4,6.6a3.46,3.46,0,0,1-.65-1.51.72.72,0,0,1,.51-.86,3.91,3.91,0,0,1,.54-.14L4.81,4c.15.8.29,1.52.44,2.18a12.14,12.14,0,0,0,.82,2.47Z"/><path class="cls-2" d="M19.67,5a2.51,2.51,0,0,1-.34,1.15,9.46,9.46,0,0,1-2,2.36,14.74,14.74,0,0,0,1-3.27l0-.21.15-.91a3.16,3.16,0,0,1,.72.18A.66.66,0,0,1,19.67,5Z"/><path class="cls-2" d="M6.07,8.68l-.31-.23A8.43,8.43,0,0,1,4,6.6a3.46,3.46,0,0,1-.65-1.51.72.72,0,0,1,.51-.86,3.91,3.91,0,0,1,.54-.14L4.81,4c.15.8.29,1.52.44,2.18A12.14,12.14,0,0,0,6.07,8.68Z"/></svg>