<svg id="Layer_1" data-name="Layer 1" xmlns="http://www.w3.org/2000/svg" viewBox="0 0 23 23"><defs><style>.cls-1{fill:#2b95ad;}.cls-2{fill:#fff;}</style></defs><title>W-WH-23x</title><path class="cls-1" d="M15.65,9.09c-.12,0-.15,0-.14-.29,0-1.05,0-2.11,0-3.16a3.77,3.77,0,0,0-.07-.8,1.21,1.21,0,0,0-.78-1,1,1,0,0,0-1,.28l-.1.09-.31.28C10.68,6.81,8.15,7.86,5.49,7.72c-.93,0-1.86,0-2.77,0H2.1A1.67,1.67,0,0,0,.51,9.57c0,.65,0,1.34,0,2a1.68,1.68,0,0,0,1.54,1.76h.83a2.58,2.58,0,0,1,0,.51v.33c0,.57,0,1.17,0,1.79a9.3,9.3,0,0,0,.32,1.43c.09.32.18.65.25,1A1.67,1.67,0,0,0,4.9,19.92a3.23,3.23,0,0,0,.61.06,2.9,2.9,0,0,0,1-.16,2,2,0,0,0,.89-.58.65.65,0,0,0,.2-.49.57.57,0,0,0-.25-.4,3.6,3.6,0,0,1-.69-.77,1.37,1.37,0,0,1-.2-1.38.65.65,0,0,0-.07-.64l0,0a1.48,1.48,0,0,1,0-1.45c.36-.65.76-.66,1-.61a10,10,0,0,1,2.78.95A15.33,15.33,0,0,1,13.75,17a.77.77,0,0,0,1.14,0,1.73,1.73,0,0,0,.62-1.46V14.34c0-.71,0-1.42,0-2.12,0-.18,0-.19.12-.21a1.46,1.46,0,0,0,1-1.42A1.46,1.46,0,0,0,15.65,9.09Zm-.14,2.51a.54.54,0,0,0-.42.62v3.4a1.33,1.33,0,0,1-.46,1.13c-.24.19-.38.18-.59,0A15.54,15.54,0,0,0,10.4,14a10.58,10.58,0,0,0-2.9-1A1.31,1.31,0,0,0,6,13.88,1.89,1.89,0,0,0,6,15.72l0,0c.07.13.09.17,0,.29a1.76,1.76,0,0,0,.25,1.77,3.64,3.64,0,0,0,.77.85.31.31,0,0,1,.1.12s0,.07-.1.18a1.57,1.57,0,0,1-.71.46A2.74,2.74,0,0,1,5,19.51,1.28,1.28,0,0,1,3.8,18.34c-.07-.35-.17-.69-.26-1A9.21,9.21,0,0,1,3.24,16c0-.59,0-1.2,0-1.78v-.28c.07-.45.1-.65,0-.81S2.87,13,2.5,13H2.06A1.26,1.26,0,0,1,.93,11.6c0-.69,0-1.38,0-2,0-.86.47-1.43,1.17-1.44h.62c.91,0,1.84,0,2.75,0,2.77.14,5.4-.94,8.05-3.3.11-.09.21-.19.31-.29l.1-.09a.61.61,0,0,1,.6-.18.85.85,0,0,1,.5.66,3.37,3.37,0,0,1,.06.7V8.8a.59.59,0,0,0,.44.69,1,1,0,0,1,.67,1.09A1,1,0,0,1,15.51,11.6Z"/><path class="cls-2" d="M16.2,10.58a1,1,0,0,1-.69,1,.54.54,0,0,0-.42.62v3.4a1.33,1.33,0,0,1-.46,1.13c-.24.19-.38.18-.59,0A15.54,15.54,0,0,0,10.4,14a10.58,10.58,0,0,0-2.9-1A1.31,1.31,0,0,0,6,13.88,1.89,1.89,0,0,0,6,15.72l0,0c.07.13.09.17,0,.29a1.76,1.76,0,0,0,.25,1.77,3.64,3.64,0,0,0,.77.85.31.31,0,0,1,.1.12s0,.07-.1.18a1.57,1.57,0,0,1-.71.46A2.74,2.74,0,0,1,5,19.51,1.28,1.28,0,0,1,3.8,18.34c-.07-.35-.17-.69-.26-1A9.21,9.21,0,0,1,3.24,16c0-.59,0-1.2,0-1.78v-.28c.07-.45.1-.65,0-.81S2.87,13,2.5,13H2.06A1.26,1.26,0,0,1,.93,11.6c0-.69,0-1.38,0-2,0-.86.47-1.43,1.17-1.44h.62c.91,0,1.84,0,2.75,0,2.77.14,5.4-.94,8.05-3.3.11-.09.21-.19.31-.29l.1-.09a.61.61,0,0,1,.6-.18.85.85,0,0,1,.5.66,3.37,3.37,0,0,1,.06.7V8.8a.59.59,0,0,0,.44.69A1,1,0,0,1,16.2,10.58Z"/><path class="cls-2" d="M16.85,7.87a3.31,3.31,0,0,0-.44,0,2.67,2.67,0,0,1,.29,5.24,2.62,2.62,0,0,0,.15-5.22Zm2.23,2.91a2.57,2.57,0,0,1-1.72,2.12A2.73,2.73,0,0,0,17.09,8a2.57,2.57,0,0,1,2,2.81Z"/><path class="cls-1" d="M18.65,8.82a2.64,2.64,0,0,0-1.8-1,3.24,3.24,0,0,0-.45,0v.12A2.61,2.61,0,0,1,16.69,13v.12a2.67,2.67,0,0,0,2.49-2.36A2.63,2.63,0,0,0,18.65,8.82Zm.43,2a2.57,2.57,0,0,1-1.72,2.12A2.73,2.73,0,0,0,17.09,8a2.57,2.57,0,0,1,2,2.81Z"/><path class="cls-2" d="M19.08,10.78a2.57,2.57,0,0,1-1.72,2.12A2.73,2.73,0,0,0,17.09,8a2.57,2.57,0,0,1,2,2.81Z"/><path class="cls-2" d="M19.05,6.6a3.53,3.53,0,0,0-.65,0,3.92,3.92,0,0,1,.44,7.69,3.85,3.85,0,0,0,.21-7.67Zm3.3,4.27a3.79,3.79,0,0,1-2.86,3.24,4,4,0,0,0-.4-7.44,3.78,3.78,0,0,1,3.26,4.2Z"/><path class="cls-1" d="M21.67,8a3.87,3.87,0,0,0-2.61-1.47,4.79,4.79,0,0,0-.66,0v.13a3.86,3.86,0,0,1,.43,7.57l0,.12A3.91,3.91,0,0,0,21.67,8Zm.68,2.86a3.79,3.79,0,0,1-2.86,3.24,4,4,0,0,0-.4-7.44,3.78,3.78,0,0,1,3.26,4.2Z"/><path class="cls-2" d="M22.35,10.87a3.79,3.79,0,0,1-2.86,3.24,4,4,0,0,0-.4-7.44,3.78,3.78,0,0,1,3.26,4.2Z"/></svg>